<?xml version="1.0" standalone="no"?>
<!DOCTYPE svg PUBLIC "-//W3C//DTD SVG 1.1//EN" "http://www.w3.org/Graphics/SVG/1.1/DTD/svg11.dtd" >
<svg xmlns="http://www.w3.org/2000/svg">
<metadata></metadata>
<defs>
<font id="djb_jennaregular" horiz-adv-x="1808" >
<font-face units-per-em="2048" ascent="1638" descent="-410" />
<missing-glyph horiz-adv-x="616" />
<glyph horiz-adv-x="0" />
<glyph unicode="&#xd;" horiz-adv-x="508" />
<glyph unicode=" "  horiz-adv-x="616" />
<glyph unicode="&#x09;" horiz-adv-x="616" />
<glyph unicode="&#xa0;" horiz-adv-x="616" />
<glyph unicode="!" horiz-adv-x="569" d="M199 1781h18q90 -60 90 -240q78 -631 78 -894q0 -175 -60 -210h-30q-36 0 -36 438q-57 804 -84.5 834t24.5 72zM331 185q72 -11 72 -66q0 -76 -102 -114q-72 23 -72 78q0 74 102 102z" />
<glyph unicode="&#x22;" horiz-adv-x="851" d="M819.5 1244q7.5 -119 -104.5 -262t-127 -149h-12l-6 18q28 100 66 225v6q-130 51 -108 162.5t153 115t138.5 -115.5zM473.5 1341q7.5 -119 -104.5 -262t-127 -149h-12l-6 18q28 100 66 225v6q-130 51 -108 162.5t153 115t138.5 -115.5z" />
<glyph unicode="#" horiz-adv-x="1513" d="M903 1294q56 0 90 -60l-6 -96v-24q12 -24 30 -24q113 0 378 39h6q40 0 66 -48v-12q0 -36 -300 -54q-204 -33 -204 -69l-12 -84v-12l18 -18h24q212 0 420 57q96 -14 96 -78l-186 -54q-378 -29 -378 -63v-60q0 -102 36 -180q-32 -66 -78 -66h-12q-42 0 -42 288l-18 12 l-132 -12v-210l36 -144q0 -120 -90 -120q-42 0 -42 72q-7 0 -12 354q-10 30 -30 30q-104 0 -465 -74q-54 8 -54 54q0 77 303 92q258 43 258 72l-6 90l-426 -72q-72 0 -72 96q0 42 60 66l138 -6q260 0 312 54l12 114v6h6q9 68 70 36l20 -162q138 12 138 42q0 228 48 228z M705 832v-18l12 -12h72q66 0 66 108q-8 30 -42 30q-108 0 -108 -108z" />
<glyph unicode="$" horiz-adv-x="1098" d="M570 1631q59 -20 59 -89l-19 -143v-60q0 -38 34 -44l54 35q60 0 79 -85v-4q-20 -26 -20 -55v-25l10 -123q-64 -29 -64 -50l-113 -993q-56 -311 -79 -336l-15 -5q-40 0 -54 74q84 313 84 396l-5 4q-10 0 -74 -79q-120 -118 -232 -118q-136 0 -172 212v20q4 79 44 79v-25 q0 -114 89 -192l30 -5h29q67 0 163 94v5q-1 9 -45 29l-5 40q0 81 40 380q0 26 -197 238q-54 76 -54 178q0 107 113 266q117 124 246 124q20 21 20 49q0 203 39 203zM230 984v-50q0 -76 158 -217h10q36 0 49 301q20 0 44 232v15h-59q-122 0 -197 -237zM481 662q0 -29 64 -148 h5q26 0 60 420q24 108 24 148v50q0 43 -34 64h-15q-26 0 -104 -524v-10zM412 168h5q64 54 64 247q-3 40 -14 40q-23 0 -55 -287z" />
<glyph unicode="%" horiz-adv-x="1034" d="M872 1453q32 0 48 -48q-8 -48 -198 -312q-193 -272 -193 -295q-90 -136 -174 -330q-123 -176 -192 -374q-40 -36 -54 -36q-28 0 -36 54q32 133 192 380q317 557 444 759t163 202zM302 1229q64 0 78 -84q0 -95 -198 -126q-60 0 -60 54q0 83 150 150zM767 542 q126 -25 126 -96v-12q0 -79 -180 -162q-66 33 -66 132l48 108q35 30 72 30z" />
<glyph unicode="&#x26;" horiz-adv-x="2573" d="M2432 1251h8q82 0 93 -143v-8q-13 -124 -58 -124q-21 0 -31 50l4 97v8q0 21 -24 35h-38q-103 0 -167 -56t-183.5 -256t-218.5 -325q-28 -27 -55 -35q-22 7 -46 27h-20q-178 -166 -236 -166t-85 159q-14 13 -27 89l-20 15h-15q-29 0 -58 -116q-10 -147 -47 -147l-27 -8 q-13 0 -35 16h-8q-9 -5 -73 -109q-81 -81 -159 -81h-4q-41 0 -54 23h-4l-85 -93q-53 -47 -109 -47q-72 0 -128 86h-4q-26 -9 -97 -229q-44 -93 -189 -161l-39 -11q-99 0 -182 163l-4 11q0 11 19 20q17 0 132 -109l23 -4h8q168 0 240 308q116 252 144 295q5 0 19 54 q36 42 81 42v4l20 -4h35l112 8q43 0 43 -151q0 -113 35 -128h11q75 0 140 151q21 310 69 310h4q42 0 66 -85h12q17 12 97 113l31 11q55 0 104 -271q11 -27 27 -35h12q43 0 43 124q0 100 69 322q27 66 82 66q11 24 42 271q56 256 86 256q34 0 50 -62l-58 -171 q-43 -168 -43 -500v-77q4 -68 20 -74q51 27 89 120l47 91l148 217q200 224 366 224zM1611 614v-31l12 -11h4q41 26 50 229l-4 15h-8q-21 0 -54 -202zM584 235v-4q0 -101 66 -101q85 0 136 132v58q-17 27 -82 70h-15q-50 -11 -97 -101z" />
<glyph unicode="'" horiz-adv-x="447" d="M405.5 1338q7.5 -119 -104.5 -262t-127 -149h-12l-6 18q28 100 66 225v6q-130 51 -108 162.5t153 115t138.5 -115.5z" />
<glyph unicode="(" horiz-adv-x="954" d="M834 1574q60 -8 60 -60q0 -48 -186 -78q-250 -94 -432 -408q-12 -34 -93 -238.5t-81 -373.5l-6 -60q0 -391 348 -690l24 -36v-24h-12v-6q-205 77 -402 420q-54 217 -54 390v6q0 149 96 474q145 330 306 486q283 186 432 198z" />
<glyph unicode=")" horiz-adv-x="682" d="M144 1510q225 -82 408 -366q48 -140 48 -282q0 -481 -330 -870q-194 -192 -252 -192h-6q0 29 234 294q246 310 246 630v150q0 301 -282 450q-90 82 -90 156q0 24 24 30z" />
<glyph unicode="*" horiz-adv-x="959" d="M448 1492q45 0 90 -126q72 -22 72 -66q-66 -194 -66 -246v-12l18 -18h6q118 112 150 216q20 27 48 42q45 0 72 -72q0 -42 -72 -102q0 -32 -66 -90q-72 -90 -72 -120v-6h6l113 8h60q72 0 72 -24v-6q0 -40 -269 -74q-48 -20 -48 -72q0 -43 90 -96l18 -24v-18q0 -31 -78 -78 v-6l6 -78q-34 -54 -60 -54q-78 43 -78 264h-24l-78 -282l-24 -12q-54 20 -54 96l30 192v54l-18 18h-30l-159 -45q-38 0 -42 54q0 76 141 81q60 23 66 42l-36 114l102 -54h24q24 10 24 42q-2 38 -264 180l-30 42q17 60 36 60h12q52 0 234 -120h24l12 12v42l-24 264 q0 69 66 78z" />
<glyph unicode="+" horiz-adv-x="1147" d="M653 1034l-24 -344l378 40q38 0 52 -48t-424 -104q0 -231 54 -390q-21 -72 -102 -72q-66 0 -66 192q0 240 -8 237l-70 3q-132 -22 -286 -77l-30 -6q-26 6 -42 30q-14 94 126 114q76 0 310 53v186q0 240 42 240q90 -6 90 -54z" />
<glyph unicode="," horiz-adv-x="569" d="M241 308q117 0 186 -372q-71 -296 -246 -444q-33 -44 -84 -72h-24v6q0 33 168 234q66 155 66 276v24q0 72 -102 72q-132 0 -132 60q12 204 102 204z" />
<glyph unicode="-" horiz-adv-x="935" d="M806 643q64 -38 12 -82l-118 8q-398 19 -591 -23q-60 32 -14 105q144 32 711 -8z" />
<glyph unicode="." horiz-adv-x="475" d="M424.5 93.5q-29.5 -84.5 -126.5 -84.5q-96 0 -96 96q50 150 151 111.5t71.5 -123z" />
<glyph unicode="/" horiz-adv-x="660" d="M744 1544q36 0 36 -42q0 -80 -210 -486q-146 -323 -278 -669.5t-158 -346.5h-12q-30 14 -30 60v12q0 176 322 788q223 479 282 660q29 24 48 24z" />
<glyph unicode="0" horiz-adv-x="1295" d="M820 1313q300 0 408 -354l12 -96v-60q0 -222 -318 -558q-315 -240 -516 -240h-24q-182 0 -324 336q-24 88 -42 276q0 237 276 534q216 162 528 162zM592 1163l36 -30v-12q-205 -23 -270 -78q-216 -140 -216 -450q0 -383 192 -450l66 -18h84q205 0 480 294 q174 200 174 366v132q-63 294 -384 294q-162 -14 -162 -48z" />
<glyph unicode="1" horiz-adv-x="405" d="M176 1242h6q60 0 60 -144l6 -168v-516l6 -264q24 -125 -84 -150h-12q-30 10 -54 72q30 83 30 456v270q0 237 -30 402q14 42 72 42z" />
<glyph unicode="2" horiz-adv-x="837" d="M501 1314q134 0 174 -120v-18q0 -321 -414 -936v-12h18q33 44 174 84q147 84 234 84q84 -11 84 -72q0 -44 -258 -102q-193 -76 -408 -210l-54 -12h-12q-14 0 -24 72q0 43 174 234q249 342 330 636q42 104 42 186q-16 54 -60 54h-54q-60 0 -360 -300h-12q-36 28 -48 72 q0 48 240 240l156 96q31 24 78 24z" />
<glyph unicode="3" horiz-adv-x="863" d="M615 1358q109 0 162 -144v-6q0 -116 -216 -372v-18q0 -25 90 -78l48 -120q-19 -139 -228 -378q-167 -167 -306 -228q-15 -30 -54 -30q-78 14 -78 72q0 54 150 102q122 35 282 234q114 122 114 180v48q-32 60 -90 60h-6q-48 0 -288 -144l-18 -6q-36 12 -36 24v18 q0 101 150 162l234 186l96 150q36 78 36 108v18q-21 42 -60 42h-30q-148 0 -450 -282l-30 -6h-6q-47 0 -72 36q26 79 258 228q215 144 348 144z" />
<glyph unicode="4" horiz-adv-x="922" d="M628 1365q54 0 54 -60q0 -106 -30 -432h144q60 0 60 -54q0 -33 -174 -42q-66 0 -66 -480v-174l6 -84q-24 -60 -66 -60q-72 24 -72 78q48 422 48 648h-6q-351 -161 -444 -186q-41 0 -54 126l54 420q20 132 54 132h18q72 -37 72 -84q-66 -344 -66 -402v-24l18 -18 q158 22 354 156q30 44 30 168l-12 276q0 96 78 96z" />
<glyph unicode="5" horiz-adv-x="932" d="M800 1222q26 0 48 -30q0 -91 -180 -108h-42q-360 0 -360 -96q-45 -84 -74 -309v-30h6q223 54 282 54h18q166 0 240 -126l12 -42q-5 -113 -176 -361q-194 -174 -438 -174q-102 10 -102 96q0 30 90 30h150q145 0 314 307l12 60v48q0 26 -60 42h-96q-66 0 -312 -78 q-78 22 -78 66q85 585 134 585q40 36 414 54z" />
<glyph unicode="6" horiz-adv-x="932" d="M407 1217q48 -4 48 -48q0 -40 -138 -192q-192 -339 -192 -654v-6q0 -105 78 -150h36l240 246q184 144 288 156q84 0 114 -120q0 -167 -354 -348q-216 -51 -216 -120v-24l18 -48q0 -36 -54 -48q-84 21 -84 156q0 20 -126 126q-42 85 -42 186q0 310 222 750q88 138 162 138 zM419 191l6 -6h18q107 0 270 168q24 35 24 54l-18 12q-168 -54 -300 -216v-12z" />
<glyph unicode="7" horiz-adv-x="1108" d="M786 1152q54 -42 54 -90q-132 -291 -132 -354v-30l12 -12q174 48 269 43q64 -16 78.5 -62t-179.5 -41q-234 -34 -234 -126l-102 -426q-38 -46 -60 -54h-12q-42 37 -42 96l108 360l6 54v6h-6q-270 -84 -306 -84q-48 3 -48 48q0 76 306 132q96 33 96 96q48 126 48 228v12 h-24l-563 -48q-84 13 -84 66v24q14 30 60 30h120q369 0 617 132h18z" />
<glyph unicode="8" horiz-adv-x="725" d="M394 1273q120 -62 120 -162h12l84 42q72 -18 72 -66q0 -56 -228 -288q-102 -121 -102 -174v-12q0 -26 120 -186q30 -57 30 -108q0 -161 -258 -318l-54 -6h-6q-132 0 -132 162q18 204 120 348l6 42v30q0 24 -150 204q-18 32 -18 72q0 264 318 408zM130 871 q59 -162 132 -162h6q120 109 216 270v12q-108 82 -108 108l-42 6h-24q-119 0 -180 -222v-12zM166 211v-36q0 -33 30 -48h6q180 52 180 174q0 113 -84 180h-12q-78 0 -78 -90q-42 -62 -42 -180z" />
<glyph unicode="9" horiz-adv-x="1198" d="M805 1140q259 0 330 -126q30 -62 30 -84l-30 -354q-72 -252 -156 -294q-125 -139 -288 -192q-172 -90 -594 -90q-144 12 -144 96q15 78 78 78l102 -54q26 -12 96 -12q362 0 606 156q161 156 192 348v114q-6 108 -36 108l-228 -180q-127 -78 -234 -78h-24q-90 0 -120 78 q-24 54 -24 102q0 187 240 348q100 36 204 36zM481 732q0 -32 60 -36h18q141 0 246 126q126 119 126 162q0 38 -84 54q-278 0 -354 -222z" />
<glyph unicode=":" horiz-adv-x="448" d="M292 1000q102 -38 102 -114h6q0 -61 -150 -150l-42 -12q-108 23 -108 102q48 168 168 168zM245 363q100 0 156 -186q-70 -156 -198 -156q-69 0 -78 108q0 159 120 234z" />
<glyph unicode=";" horiz-adv-x="442" d="M280 954q87 0 102 -132v-6q0 -69 -168 -150q-108 37 -108 120q0 58 120 162zM268 288q126 -47 126 -132q-71 -364 -210 -516q-118 -168 -180 -168q-48 16 -48 30v6q270 283 270 468l-6 18h-30l-6 -6q-96 33 -96 108q0 121 174 192h6z" />
<glyph unicode="&#x3c;" horiz-adv-x="1103" d="M938 1272h12v-12h6q-120 -211 -720 -738q-46 -36 -60 -66v-12q0 -36 108 -78q42 -46 168 -84q0 -22 432 -144q132 -58 132 -120l-18 -18q-208 66 -414 102q-308 108 -540 246q-60 38 -60 72q44 83 252 228q105 76 654 606z" />
<glyph unicode="=" horiz-adv-x="1270" d="M1051 719l8 -19l-6 -60q-1 -18 -19 -15q-232 38 -838 -13l-158 -4l-4 6l2 18q3 42 624 85q218 31 391 2zM1146 529l12 -18v-42q0 -36 -66 -36q-292 -36 -1002 -156l-84 -12l-6 6v18q0 42 882 198q109 29 264 42z" />
<glyph unicode="&#x3e;" horiz-adv-x="1284" d="M95 1442h18q342 -292 486 -342q441 -219 528 -246q126 -16 126 -108l6 -36v-12q-6 -28 -252 -144q-278 -234 -504 -510q-24 -60 -66 -60q-54 0 -54 96q0 44 96 102l540 522l6 6v6q0 44 -162 114q-647 329 -828 486l-18 48v6q64 72 78 72z" />
<glyph unicode="?" horiz-adv-x="1012" d="M759 1800l23 -4q113 -19 95 -125l-2 -12q-22 -137 -373 -535q-103 -145 -116 -224q31 -181 96 -192q14 -24 11 -44l-3 -18q-21 -76 -84 -65q-30 5 -84 117q-49 58 -55 222l5 29q20 123 226 298q249 295 265 394q-6 39 -23 46l-65 11q-265 -29 -431 -179q-32 -20 -90 -106 l-26 -8l-12 2q-32 24 -22 83q39 125 370 255q204 70 295 55zM451 263q87 -102 81 -141q-13 -79 -193 -138q-67 37 -63 65q22 21 78 139q41 42 97 75z" />
<glyph unicode="@" horiz-adv-x="2019" d="M1191 1877q156 -48 234 -180q120 -309 120 -516q0 -303 -228 -408l-108 -12h-36q-33 0 -222 -156q-23 -12 -66 -12q-198 47 -198 180v36q0 36 42 78q0 76 204 138h30q154 0 324 -114h24q144 50 144 288q-37 310 -95 432t-163 144h-84q-408 -69 -580.5 -279.5t-231 -275 t-127.5 -229.5t-69 -369.5t276 -364.5q247 -156 636 -156q464 21 633.5 266t219 280.5t71.5 -48.5q0 -151 -486 -498q-211 -96 -426 -96h-78q-437 0 -708 216l-102 90q-132 184 -132 366q-16 337 297 699t603 441q172 48 282 60zM831 809v-24q0 -33 42 -60h24 q138 61 138 126v54l-18 18h-30q-156 -24 -156 -114z" />
<glyph unicode="A" horiz-adv-x="1103" d="M561 1424h12q84 0 138 -265t138 -551q194 14 226 -10q-4 -95 -94 -90.5t-90 -13.5v-6q0 -77 127 -337l18 -72q0 -61 -75.5 -84.5t-219.5 511.5q-408 -13 -408 -48q-76 -385 -191 -415q-38 0 -48 60q125 327 125 361v6q-192 -20 -209 40q0 66 150 54q95 -4 95 26 q206 693 230 763.5t76 70.5zM569 1197l-176 -619q162 0 312 24q-99 534 -136 595z" />
<glyph unicode="B" horiz-adv-x="1530" d="M106 1403h21l81 -74q29 -21 54 -21q87 0 724 82l318 13q142 0 142 -101v-14q-16 -114 -325 -318q-25 0 -135 -88v-13l34 -7h115l88 7q250 0 250 -136q-20 -132 -460 -412q-168 -98 -541 -251l-41 -13q-54 11 -54 54q13 62 221.5 119t705.5 402q34 39 34 95 q-13 47 -109 47h-148q-267 0 -724 -203q-41 0 -55 95q104 71 407 177.5t527 316.5q75 78 75 115v13q0 25 -88 34q-988 -69 -988 -203l-7 -47v-156q0 -530 19 -709t-71.5 -197t-90 59t0.5 231v224q0 615 -41 615l-47 48v13q51 203 108 203z" />
<glyph unicode="C" d="M1077 1378q190 0 357 -363v-37q-40 -58 -109 -58q-70 0 -131 240q-68 87 -138 87h-80q-265 0 -692 -414q-152 -156 -152 -364v-15q-8 -171 167 -276q218 -58 349 -58h44q661 0 812.5 150.5t215 132t63.5 -42.5v-15q-179 -188 -604 -291q-225 -36 -414 -36h-197 q-407 0 -538 306q-22 77 -22 130q0 282 436 655q314 269 633 269z" />
<glyph unicode="D" horiz-adv-x="1470" d="M810 1299q235 -42 354 -96q258 -147 258 -276v-12q0 -249 -570 -714q-381 -204 -420 -204q-36 20 -180 42q-18 0 -84 558q-42 235 -72 540q-78 40 -78 60l-6 30q0 98 78 102t720 -30zM234 1125q2 -388 150 -996l6 -6q0 -12 18 -12q35 24 186 48q432 179 690 600 q42 88 42 138q0 169 -378 294q-185 36 -444 36h-66q-198 0 -198 -42z" />
<glyph unicode="E" horiz-adv-x="1366" d="M219 1269q16 0 78 -48h18q902 82 918 0q6 -78 -282 -66h-78q-612 -13 -612 -72q-14 0 -18 -90v-120q0 -168 42 -168q251 76 523 105t263 -69q0 -42 -144 -24h-42q-290 0 -624 -120l-12 -36v-18q0 -378 90 -378q360 102 996 234q60 -31 60 -81.5t-382 -95.5t-698 -153 q-84 -36 -192 -54q-54 11 -54 36q66 63 66 162v120q0 208 -36 216h-12q-83 21 -83 66q30 78 89 66h24v396h-6l-83 5q-42 21 -42 48q0 60 95 67l108 66z" />
<glyph unicode="F" horiz-adv-x="1007" d="M919 1312q78 -24 84 -48v-12q0 -60 -547 -40q-204 -6 -204 -36v-132q0 -240 18 -240q149 0 467 66q202 24 240 54q54 -28 54 -72q-30 -72 -695 -162l-48 -30q30 -428 66 -618q0 -25 -108 -42q-42 0 -42 198l-30 456h-6q-144 0 -144 48q30 84 126 84v12q0 79 -42 384 l-38 -3q-72 0 -72 54q0 48 120 48l801 25v6z" />
<glyph unicode="G" horiz-adv-x="1559" d="M1379 1126q-25 -95 -79 -86.5t-131 80.5l-84 24h-96q-333 -12 -595.5 -261t-262.5 -524v-54q0 -106 228 -180h78q348 0 588 150q152 72 192 72v-12q-183 -183 -456.5 -258.5t-455 -40.5t-235 110.5t-53.5 196.5t125.5 371.5t368.5 385t517 138t351 -111.5zM1475 437 q30 -92 30 -222q-25 -594 -96 -594q-54 0 -54 90l24 480v6q-4 206 -54 228q-74 18 -162 18h-84q-197 0 -678 -150l-24 -6q-42 0 -72 78q289 98 692 154.5t478 -82.5z" />
<glyph unicode="H" horiz-adv-x="1225" d="M946 1406h12q34 0 54 -450q22 -246 48 -246h54l52 10q66 -4 66 -54q3 -50 -175 -65l9 -71q0 -142 48 -384v-6q0 -59 -90 -72q-66 0 -66 228l-25 288h-59l-588 -96q-18 -22 -18 -42v-126q0 -42 5.5 -168t-16 -137t-66 -5t-43.5 454h-54q-93 -6 -93 30v24q0 48 60 54l81 -6 l6 552v30q0 192 42 192h6q66 0 66 -192l6 -246v-318q350 36 648 90q-58 642 -78 642q0 52 108 90z" />
<glyph unicode="I" horiz-adv-x="1060" d="M946 1326q0 -54 -132 -54l-192 6q-19 0 -36 -18l6 -42q-24 -222 -24 -426v-354q0 -270 42 -270l397 49q24 0 36 -24v-18q0 -48 -400.5 -111.5t-446.5 -63.5q-47 0 -66 36v12q0 46 144 66l181 37l-13 215l6 744l6 144h-12v6l-18 -6q-260 0 -388 -39q-26 0 -36 30 q0 96 473 108.5t473 -27.5z" />
<glyph unicode="J" horiz-adv-x="517" d="M214 1481q78 3 87 -225l1 -669q22 -699 -213 -984.5t-435 -350t-361 -44.5q-90 -3 -91 21q-2 48 94 51l12 1l84 -3q215 8 414.5 184.5t297 351.5t93.5 566.5t-20 799.5l-20 221q3 78 57 80z" />
<glyph unicode="K" horiz-adv-x="1330" d="M1229 1497v-24q-194 -120 -567 -354q-162 -115 -162 -126q0 -77 348 -486q416 -386 432 -420q0 -40 -72 -78q-132 53 -702 702q-132 125 -132 174h-18q-125 -55 -192 -198q-42 -53 -42 -72v-36q0 -247 96 -492v-6q0 -58 -108 -72q-58 0 -78 252q-16 101 -24 414 q0 684 90 684q72 -17 72 -72q-30 -240 -30 -402l6 -24h18q432 288 692 477t305.5 189t67.5 -30z" />
<glyph unicode="L" horiz-adv-x="1310" d="M162 1506q84 0 51 -186t-33 -738l-12 -342l6 -66h12v-6q431 158 903 205l162 30l42 -42v-12q0 -43 -534 -148t-633 -177q-39 -18 -96 -18h-12q-12 0 -12 18q49 190 78 1338q0 144 66 144h12z" />
<glyph unicode="M" horiz-adv-x="1654" d="M1339 1416q106 0 162 -972q22 -204 46 -307t-112 -65q-22 0 -96 942q-22 157 -48 192h-12q-177 -193 -300 -462q-175 -342 -252 -420h-24q-276 250 -342 372l-96 174h-12q-42 -72 -78 -504q-14 -336 -48 -336q-52 -30 -90 -30q-16 0 -30 30l126 840q11 342 78 342l36 6 l120 -240q81 -220 300 -462l24 -12h24q75 49 288 480l228 372q40 40 108 60z" />
<glyph unicode="N" horiz-adv-x="1430" d="M1257 1575q64 9 53 -84.5t-11 -389.5v-174q15 -690 66 -690q34 -150 -48 -150h-6q-365 0 -762 468q-181 169 -282 378q-73 102 -108 102q-18 -4 -18 -48v-222q0 -426 42 -714q-54 -43 -102 -48q-54 0 -54 384l8 783q4 147 106 147q66 -5 111.5 -151t500.5 -671 q321 -288 450 -288h6l12 12q-36 240 -36 780v330q0 246 72 246z" />
<glyph unicode="O" d="M1064 1486q122 0 353 -140q305 -163 305 -438v-67q2 -636 -678 -796q-150 -33 -300 -40l-107 7q-388 0 -594 333q-39 112 -40 187q0 381 365 664.5t696 289.5zM96 559q0 -222 241 -374q150 -80 340 -80h80q349 12 494.5 98t257.5 220.5t112 577.5q0 69 -144 211 q-30 14 -86 14l-54 -34h-6q-55 81 -167 81q-207 0 -207 -61q0 -60 -33 -60q-80 31 -80 94q0 55 126 120v7h-6q-307 -54 -507 -207q-137 -121 -221.5 -224t-132.5 -337z" />
<glyph unicode="P" horiz-adv-x="1469" d="M864 1497q518 0 690 -228l12 -42q0 -167 -552 -336q-335 -90 -494.5 -125.5t-255.5 -60.5l-6 -24q0 -330 36 -512t-90 -154q-66 0 -66 942q0 228 -30 228l-72 -12q-30 4 -30 18v18q116 155 546 258q197 30 312 30zM258 1281v-444h78q320 0 912 216q192 93 192 162 q0 139 -546 198h-72q-345 0 -564 -132z" />
<glyph unicode="Q" horiz-adv-x="1519" d="M558 1548q113 0 138 -120q5 -12 180 -54q254 -112 372 -444q30 -141 8.5 -315t-206.5 -393q-18 -6 -18 -36q160 -96 315 -93q120 -2 120 -24v-6q0 -38 -210 -54q-55 -3 -315 123h-6q-239 -138 -414 -138q-207 32 -330 138q-127 140 -168 402l-18 156q0 410 318 738 q128 120 234 120zM96 672v-36q0 -130 144 -414q107 -126 324 -126q154 0 300 90q-138 168 -330 432l-12 42q23 48 60 48q56 0 228 -294q85 -113 120 -138h24q222 203 222 492q0 301 -324 510q-64 36 -150 48l-156 -24l-24 24q60 70 60 90l-12 12h-54q-134 0 -318 -300 q-102 -254 -102 -456z" />
<glyph unicode="R" horiz-adv-x="1217" d="M814 1428q318 -20 324 -156q0 -108 -432 -318l-12 -12l18 -78q0 -195 258 -804q254 -426 492 -426h12q180 10 462 216l114 138h6v-84q-16 -87 -300 -276q-182 -96 -264 -96q-304 0 -576 444q-184 364 -276 678q-68 174 -102 174h-6q-98 -18 -220 -88.5t-122 -91.5l-6 -66 q0 -156 24 -516q0 -35 -42 -54q-78 0 -78 48v12q0 1057 -66 1242h-6q38 78 90 78l84 -42l48 -6l186 48q212 36 390 36zM172 1170v-246q0 -126 18 -126q95 0 240 84q467 296 516 312q72 60 72 96v6q-92 54 -270 54q-273 0 -552 -150z" />
<glyph unicode="S" horiz-adv-x="1358" d="M1022 1343q225 0 354 -264l6 -30q-26 -54 -72 -54q-44 0 -96 150q-75 96 -180 96h-48q-243 -18 -630 -318q-240 -195 -240 -342v-42q43 -66 204 -66q70 0 546 84l126 6q216 -22 216 -198v-6q0 -123 -288 -288q-166 -54 -288 -54h-42q-156 0 -156 78q0 38 54 42l186 -18 h12q223 0 390 198l12 54v36q0 28 -150 66q-144 0 -594 -84l-96 -6q-211 0 -246 168q0 185 282.5 423t575.5 333q103 36 162 36z" />
<glyph unicode="T" horiz-adv-x="1350" d="M1570 1334q78 0 78 -36q-33 -81 -249 -76.5t-507 -42.5q0 -496 36 -1140q0 -42 -60 -42h-6q-72 0 -72 276l-6 708q0 174 -24 174q-552 -87 -552 -120q-146 -78 -180 -78h-6q-12 0 -12 18q-12 0 -12 30h-6q0 204 1578 329z" />
<glyph unicode="U" horiz-adv-x="1005" d="M102 1203q66 0 60 -114t-9 -474t51 -360q28 0 77 35t103 112t174 267q133 246 210 486q25 24 60 24q54 0 54 -264q6 -864 18 -864q-23 -54 -84 -54q-50 0 -72 84l18 150q-15 600 -36 600h-6q-47 -205 -372 -594q-119 -120 -204 -120q-114 0 -114 474v48q0 558 42 558z " />
<glyph unicode="V" horiz-adv-x="1054" d="M1030 1274.5q0 -33.5 -146 -374.5t-241 -627.5t-147 -272.5q-48 0 -132 252q-135 259 -222 552q-138 291 -138 354q0 32 36 54h12q84 0 144 -234q240 -661 312 -714l6 -6q93 245 216 537t154.5 401t88.5 110.5t57 -32z" />
<glyph unicode="W" horiz-adv-x="1633" d="M1612 1385.5q20 -31.5 -49 -192t-153 -554t-156 -602.5q0 -28 -72 -54q-76 0 -156 258q-247 566 -300 636l-24 6q-42 -100 -78 -444q-33 -384 -90 -384l-54 -12q-48 0 -90 144q-291 624 -355.5 852t19.5 246t120 -264l186 -492q92 -188 126 -210q12 0 54 234 q60 458 84 570q37 24 60 24q96 0 168 -240q158 -331 288 -636l30 -30h12q48 130 102 354q36 200 116.5 511t136 311t75.5 -31.5z" />
<glyph unicode="X" horiz-adv-x="1355" d="M1352 1602q36 0 36 -42q0 -35 -174 -168q-202 -236 -456 -660l-6 -36v-6q0 -84 372 -390q30 -37 30 -60q-24 -48 -66 -48q-40 0 -438 372q-104 -93 -242.5 -334t-231.5 -236q-27 12 -28.5 63t142.5 195q288 371 288 402q-17 84 -296.5 340t-279.5 315t62.5 54.5 t295.5 -264t296 -307.5h6q64 53 240 330q230 290 250 319t164 149z" />
<glyph unicode="Y" horiz-adv-x="1074" d="M961 1382q60 -12 60 -60q-48 -112 -48 -168q-10 -82 -18 -1032q16 -291 -218.5 -606.5t-731.5 -315.5h-36q-257 14 -270 48v24l12 18q89 -24 246 -24q507 8 732.5 344t157.5 566q-7 41 -39 56l-255 286q-107 143 -540 600l-6 30v12q52 66 90 66q39 0 65 -57t457 -525 q18 -55 210 -228h12l6 24q-18 344 -18 576q0 366 126 366h6z" />
<glyph unicode="Z" horiz-adv-x="1507" d="M920 1118q84 -12 84 -66q0 -13 -96 -120l-156 -258q-348 -429 -348 -480l18 -6l834 102l192 12l6 -6v-66q0 -25 -330 -36q-629 -96 -828 -168l-84 -6q-78 10 -78 72q0 65 150 156q159 157 216 258q131 148 300 450q10 42 18 42l-6 18h-108l-582 -24q-98 8 -102 30v6 q0 54 900 90z" />
<glyph unicode="[" horiz-adv-x="868" d="M707 1737q30 -8 30 -18v-18q0 -48 -438 -108q-62 0 -102 -198q-42 -339 -42 -708v-162q0 -330 90 -474h24q323 84 516 84q42 -4 42 -18q-32 -37 -330 -108q-213 -132 -258 -132q-198 97 -198 576v54l-6 6l6 18q0 556 84 1140q0 41 582 66z" />
<glyph unicode="\" horiz-adv-x="890" d="M-135 1624h12q259 -231 312 -384q90 -162 297 -567q160 -341 240 -438q102 -171 102 -216v-6q-12 -24 -30 -24q-117 107 -240 324q-128 229 -317.5 618t-333.5 561q-60 50 -60 108q9 24 18 24z" />
<glyph unicode="]" horiz-adv-x="1114" d="M955 1591q84 -42 84 -132q-54 -422 -54 -750v-78q0 -471 54 -702q0 -22 -114 -78h-6q-116 66 -180 66h-48q-200 0 -354 -42q-66 18 -66 36v18q0 53 600 114l12 36q0 689 30 1284v18q-8 60 -66 60q-524 -42 -708 -96q0 -12 -60 -12q-54 8 -54 36q0 80 822 186z" />
<glyph unicode="^" horiz-adv-x="1449" d="M615 1339q55 0 222 -162q577 -644 577 -745q-8 -42 -24 -42h-18q-333 308 -719 784q-55 -69 -158 -201q-52 -49 -342 -456l-90 -150h-6l-24 36q18 144 522 918z" />
<glyph unicode="_" horiz-adv-x="1582" d="M1323 171q194 -30 205 -67v-6q-5 -51 -322 -31q-788 -67 -1065 -42q-118 23 -112 89q3 28 81 35l131 -18q432 -40 931 30q6 13 151 10z" />
<glyph unicode="`" horiz-adv-x="1509" d="M1240 1923q142 0 198 -204l6 -66v-114q0 -384 -534 -1602q-66 -154 -66 -288q0 -57 30 -156q0 -24 -30 -36q-102 40 -102 162l24 120q0 114 204 534q209 492 312 870q66 270 66 342v78q0 213 -96 246h-42q-164 0 -414 -426q-37 -204 -78 -204q0 -12 -30 -12h-12 q-19 0 -36 66l12 108q-172 336 -336 336h-60q-108 0 -108 -132v-12q0 -268 480 -798q36 -15 126 -150q40 -11 108 -114q54 -40 54 -72q-12 -27 -24 -30h-6q-73 4 -438 438q0 22 -150 192q-264 381 -264 528q0 198 198 258l60 6q187 0 324 -228l84 -108h6q179 239 348 396 q96 72 186 72z" />
<glyph unicode="a" horiz-adv-x="910" d="M251 954q54 0 120 -192q115 -212 156 -264q19 -48 42 -48l186 -2q78 -8 78 -24v-6q-11 -16 -180 -64q-36 -4 -36 -18q23 -79 168 -294l18 -78q0 -36 -36 -60q-95 0 -270 390h-54q-178 -23 -277 -94l-29 -44q0 -168 -78 -168h-6q-76 -6 36 384q72 313 72 426l-12 66 q0 83 102 90zM197 360l6 -6h6q192 34 192 66q0 77 -138 234h-6q-22 0 -60 -294z" />
<glyph unicode="b" horiz-adv-x="1049" d="M560 990q174 0 174 -108v-6q0 -50 -66 -228q26 -16 198 -48q90 -80 14.5 -253t-470.5 -329l-42 -6l-54 6h-12q-54 0 -102 -18q-66 0 -66 348q0 378 -60 378q-30 41 -30 60q75 138 132 138l54 -6q30 0 222 60zM248 738v-6q8 -216 30 -216q142 54 270 180q78 100 78 126v6 q0 48 -90 48q-288 -22 -288 -138zM272 348q0 -131 12 -192h18q0 30 42 30q30 0 42 -48l6 -6h18q111 0 330 204q72 93 72 114v6q0 50 -66 66h-66q-112 0 -408 -168v-6z" />
<glyph unicode="c" horiz-adv-x="1024" d="M469 894q113 0 222.5 -107.5t38.5 -147t-141 56.5q-63 78 -150 78q-196 -51 -287 -299q-18 -54 -24 -150q0 -150 143 -217l90 -6h42q103 0 378 90q81 65 150 78q24 -9 24 -18v-12q-266 -240 -606 -240q-241 0 -330 222l-6 66v66q0 260 324 498q36 24 132 42z" />
<glyph unicode="d" horiz-adv-x="780" d="M267 908q255 0 414 -168q50 -85 54 -162q0 -196 -330 -486l-222 -84q-82 0 -90 138l-42 618q-8 0 -18 66q0 78 228 78h6zM235 150q170 62 212 98q180 186 180 270v60q0 132 -180 198l-114 6l-162 -20q30 -500 64 -612z" />
<glyph unicode="e" horiz-adv-x="865" d="M97 111q-14 53 -14 143q-16 480 -54 480l-36 48q77 102 114 102l72 -6q277 0 516 66q84 -7 84 -60q-16 -22 -474 -120q-96 -24 -108 -20v-250l12 -12h48q35 0 376 84l42 6q30 -8 30 -18q0 -50 -370 -150q-112 -46 -120 -66v-18l24 -174q17 -8 37 -18l114 -12h6 q106 0 198 48l108 24l18 -6v-24q-2 -13 -180 -108q-147 -54 -264 -54q-147 0 -180 108q0 3 1 7z" />
<glyph unicode="f" horiz-adv-x="836" d="M774 1010q42 -5 42 -36q0 -47 -162 -60q-474 -108 -474 -168q-18 0 -24 -84v-48q0 -84 36 -84q186 24 600 102l18 -6v-12q0 -32 -486 -180l-150 -42l12 -336q-8 -60 -72 -60q-48 0 -48 42q-42 552 -42 702q0 156 42 156l42 -6h24q537 120 642 120z" />
<glyph unicode="g" horiz-adv-x="1139" d="M715 867h66q138 -13 152 -112.5t-206 -13.5h-60q-336 -83 -460 -266q-87 -147 -87 -201q0 -132 282 -132h84q96 0 264 114l18 -6v-18q0 -126 -396 -204h-66q-214 0 -288 210v42q0 108 169 335q220 232 528 252zM954 460q112 0 86 -246t-26 -300q0 -30 30 -102v-12 q0 -48 -66 -60q-102 15 -102 90q0 98 60 372v114q0 19 -60 24q-123 0 -576 -126l-42 -6q-54 28 -54 72q28 60 130 72t482 96z" />
<glyph unicode="h" horiz-adv-x="844" d="M754 837.5q-42 -295.5 -26 -375t30.5 -219t-60.5 -139.5q-90 0 -90 332l-6 6h-12q-366 -46 -366 -138v-210q0 -102 -102 -102q-36 12 -36 48l24 282q0 40 -72 60l-42 72q0 36 120 36v336q0 246 84 264q54 -36 54 -90q-18 -197 -18 -420v-72l18 -18h42q324 0 324 66 q30 626 103 601.5t31 -320z" />
<glyph unicode="i" horiz-adv-x="412" d="M214 978q60 0 60 -174v-72l-19 -370q0 -217 15 -275t-45 -91h-36q-72 50 -72 150l25 562q0 93 -7 155t19 109z" />
<glyph unicode="j" horiz-adv-x="455" d="M266 873q54 0 54 -180q17 -830 -207 -1181.5t-664 -351.5h-42q-169 0 -402 258q-96 154 -96 342q54 58 54 0q0 -262 282 -444q106 -60 192 -60h78q389 0 550 382t135 677q0 159 -36 432q0 65 102 126z" />
<glyph unicode="k" horiz-adv-x="1124" d="M1054 978q18 0 36 -36q0 -63 -192 -126q-528 -258 -528 -282q6 -14 342 -150q275 -152 336 -324q-12 -27 -24 -30h-6q-40 0 -156 144q-89 50 -162 114q-190 68 -402 108q-42 0 -96 36q-36 -44 -36 -90v-48q0 -78 48 -204q-31 -90 -108 -90q-66 0 -66 102q0 238 -42 318v6 q0 31 66 126l6 78v132l-6 24q0 114 60 114q102 -24 102 -84q-46 -131 -48 -234l6 -18h6l426 204l432 210h6z" />
<glyph unicode="l" horiz-adv-x="844" d="M46 988q90 0 90 -174q10 0 18 -270l-6 -402q110 0 432 66q35 0 186 54q32 0 42 -66q0 -58 -132 -72q-490 -108 -540 -108h-12q-90 0 -90 102l12 366v102q0 145 -30 390z" />
<glyph unicode="m" horiz-adv-x="1256" d="M911 978h18q152 0 204 -264q42 -306 46 -582q0 -48 -42 -48q-84 0 -88 426q-27 306 -84 306h-18q-72 0 -210 -234q-223 -300 -312 -300h-6q-77 0 -162 210l-30 6q-24 -27 -84 -408q-38 -90 -66 -90q-60 30 -60 84q54 220 54 276q32 510 66 510h6q79 -1 186 -282 q86 -166 120 -168q94 56 246 264z" />
<glyph unicode="n" horiz-adv-x="929" d="M789 1016l12 -12q0 -94 12.5 -379t12.5 -391v-24q-16 -232 -114 -120l-228 144q-292 282 -318 282v-6l12 -444q0 -66 -66 -66q-54 0 -54 402q-7 0 -12 162q-36 108 -36 150q0 102 72 102q62 0 126 -138q128 -170 318 -348q152 -96 174 -96q53 193 16 535.5t73 246.5z" />
<glyph unicode="o" horiz-adv-x="1112" d="M526 980q148 0 246 -102q312 -176 282 -492q0 -147 -240 -300q-197 -90 -354 -90q-344 0 -420 216q-30 73 -30 144q30 428 414 600q67 24 102 24zM118 398v-54q0 -183 228 -252h60q311 0 414 102q132 55 132 162q30 297 -150 402l-36 6h-54l-6 -6q-116 60 -168 60h-60 q-178 0 -269 -184.5t-91 -235.5z" />
<glyph unicode="p" horiz-adv-x="1068" d="M692 1032h36l24 6q264 -24 264 -120q-46 -138 -366 -306l-342 -138v-42q0 -60 84 -336q0 -53 -54 -96h-24q-52 0 -102 372q-19 56 -54 84q-18 26 -18 48l30 72v30q-25 168 -60 168q-12 0 -12 -18l-24 -12q-90 26 -90 48v18q57 93 234 144q313 78 474 78zM260 798v-24 q0 -192 72 -192q128 0 486 234q84 71 84 108q-41 30 -204 30h-30q-402 -28 -402 -96z" />
<glyph unicode="q" horiz-adv-x="952" d="M555 916h42q148 0 198 -102q55 -76 57 -272q0 -154 -138 -330v-6q0 -60 115 -162q115 -82 294 -162l6 -6v-12l-36 -6q-119 0 -312 114q-125 132 -145 132h-6q-257 -90 -342 -90q-191 0 -258 186l-6 48q7 278 150.5 479.5t380.5 188.5zM132 248q39 -126 186 -126h12 q104 0 222 72v6q0 31 -113 226l-12 54q12 47 59 39.5t50.5 -41.5t117.5 -182l24 -6h6q0 19 48 102q24 74 24 126v54q-3 198 -105 236h-24q-169 27 -302.5 -49t-192.5 -475v-36z" />
<glyph unicode="r" horiz-adv-x="1188" d="M146 900h18q59 -54 84 -54h6q177 48 312 48q252 -28 252 -150q0 -132 -342 -348l-6 -6v-18l12 -12h36q316 0 582 -90q42 -40 42 -72q0 -31 -36 -54h-12q-178 96 -462 96h-72l-282 -6q0 -31 36 -150q-24 -84 -78 -84q-61 0 -84 378q-13 288 -66 288q-84 6 -84 48 q0 34 84 90q33 85 60 96zM224 750v-60q14 -282 60 -282q52 0 330 204q66 54 66 96v30q-25 54 -156 54q-133 0 -300 -42z" />
<glyph unicode="s" horiz-adv-x="876" d="M485 912q154 0 222 -180l6 -24q-16 -72 -66 -72h-6q-17 4 -90 126q-69 36 -102 36h-36q-144 -20 -216 -94t-72 -110v-18q-13 -98 227 -98q324 28 420 -144l6 -66q-31 -187 -291 -248l-54 -12q-216 31 -216 90q-9 0 -18 60q14 42 24 42h6q30 0 78 -60l102 -18 q163 4 207.5 74t41.5 66q-26 102 -222 102q-307 0 -384 108q-48 85 -35 104v12q-18 106 151 225t317 99z" />
<glyph unicode="t" horiz-adv-x="940" d="M646 990q208 20 262 -28l36 -42v-18l-60 -12q-107 4 -256 4h-12q-96 0 -96 -54q-21 -141 -36 -762q-12 -78 -60 -78q-54 14 -54 102l24 594q-6 156 -36 156h-18q-146 0 -334 -118h-12q-36 42 -42 66q0 47 196 100q249 90 498 90z" />
<glyph unicode="u" horiz-adv-x="816" d="M75 852q78 -4 78 -24q0 -618 54 -618h30q74 0 156 90q144 193 144 228q22 45 42 180q63 84 90 84q42 0 42 -66l-6 -492q0 -126 48 -186q0 -22 -60 -60q-102 52 -102 270l-6 150h-6q-251 -342 -390 -342h-12q-108 73 -108 210q0 266 -54 510q0 66 60 66z" />
<glyph unicode="v" horiz-adv-x="948" d="M851 978q44 0 44 -47t-57.5 -199.5t-122.5 -427t-111.5 -289.5t-76.5 -15q-169 182 -348 546q-102 140 -102 156v12q38 48 72 48q60 -8 252 -396q27 -87 126 -180h18q74 86 186 576l54 180z" />
<glyph unicode="w" horiz-adv-x="1284" d="M1221 943q60 -35 -12.5 -186t-139.5 -622q-27 -108 -84 -108l-6 -6q-70 7 -192 282q-73 124 -120 162h-18q-30 0 -42 -324q-24 -144 -108 -144h-18q-29 27 -252 426l-224 329v12q52 66 90 66q119 -133 248 -407q37 -73 138 -204l18 -6q16 33 42 408q31 72 78 72 q88 0 216 -264q74 -145 114 -186q63 71 176 628q55 68 96 72z" />
<glyph unicode="x" horiz-adv-x="948" d="M804 992q54 -6 54 -24v-18q0 -33 -180 -258q-108 -181 -108 -216v-18q0 -60 210 -174q74 -63 90 -96q0 -19 -42 -42q-46 0 -312 198h-36q-62 0 -192 -306q0 -54 -42 -54q-72 18 -72 54l204 336l6 36v6q0 60 -366 378l-24 66q0 41 78 84q28 0 318 -354q54 -42 78 -42h36 q11 2 60 120q142 214 198 318z" />
<glyph unicode="y" horiz-adv-x="720" d="M635 950q72 -18 72 -48q-40 -86 -229 -424l8 -74l-6 -108v-180l12 -75q-16 -42 -60 -42q-72 0 -72 419q0 50 -279 320q-57 73 -66 114q23 78 78 78q46 -11 114 -150q82 -118 205 -182q153 252 193 346z" />
<glyph unicode="z" horiz-adv-x="1024" d="M716 822q44 0 84 -78q0 -58 -420 -516l-12 -36v-6h6q186 0 409 46t227 -70q-15 -60 -54 -60l-114 24h-72q-160 0 -624 -126q-36 12 -36 48q2 59 384 438q25 58 132 186v18h-96q-107 0 -468 -72q-72 8 -72 66q0 44 108 78q132 0 618 60z" />
<glyph unicode="{" horiz-adv-x="715" d="M353 1729h24q156 -20 156 -96q-29 -18 -78 -18h-90q-191 0 -191 -127q-30 -66 -30 -162v-72q56 -162 96 -238q108 -179 108 -258q0 -50 -90 -186q102 -181 102 -324q0 -131 -48 -270q-2 -37 -2 -86v-6q0 -66 156 -66q84 -6 84 -24v-12q-72 -66 -168 -66q-186 0 -186 192 q0 34 20 212l30 114v60q0 30 -48 102q-22 38 -198 144v6q0 144 30 168l90 -6h24q58 0 90 60v6q-19 126 -114.5 273t-95.5 265q0 355 257 403z" />
<glyph unicode="|" horiz-adv-x="494" d="M309 1642q60 0 60 -174v-78q0 -360 -72 -1338q-15 -36 -48 -36q-67 0 -78 96q60 661 78 1080q0 215 -36 384q0 55 96 66z" />
<glyph unicode="}" horiz-adv-x="731" d="M288 1800q294 0 294 -216v-36q0 -112 -143 -313.5t-143 -287.5v-18q0 -81 108 -162h24l120 18q48 0 96 -54q0 -37 -210 -216l-18 -60v-12q0 -58 82 -126q84 -121 84 -204q0 -231 -200 -358q-120 -78 -174 -78q-42 9 -42 24v24q23 35 192 120q102 160 110 250v36 q0 74 -130 168q-54 71 -54 150q0 94 60 186l6 6v12q0 14 -54 30q-126 106 -126 162q0 222 149 420t149 277v30q-16 114 -144 114h-66q-75 0 -234 -30l-24 18q30 68 90 102q85 18 198 24z" />
<glyph unicode="~" horiz-adv-x="1443" d="M719 775q117 -108 242 -110.5t322 171.5q62 6 64 -44q-13 -79 -244.5 -191t-356.5 22t-261.5 134t-325.5 -185l-43 -22h-6l-12 12q-37 74 120 181.5t270.5 123.5t230.5 -92z" />
<glyph unicode="&#xa1;" horiz-adv-x="569" d="M369 5h-18q-90 60 -90 240q-78 631 -78 894q0 175 60 210h30q36 0 36 -438q57 -804 84.5 -834t-24.5 -72zM237 1601q-72 11 -72 66q0 76 102 114q72 -23 72 -78q0 -74 -102 -102z" />
<glyph unicode="&#xa2;" horiz-adv-x="1000" d="M566 -144h-18q-90 60 -90 240q-78 631 -78 894q0 175 60 210h30q36 0 36 -438q57 -804 84.5 -834t-24.5 -72zM456 1000q113 0 222.5 -107.5t38.5 -147t-141 56.5q-63 78 -150 78q-171 0 -312 -312q-18 -54 -24 -150q0 -150 168 -204l90 -6h42q103 0 236 6q81 65 150 78 q24 -9 24 -18v-12q-124 -156 -464 -156q-241 0 -330 222l-6 66v66q0 260 324 498q36 24 132 42z" />
<glyph unicode="&#xa3;" horiz-adv-x="892" d="M470 1359h24q156 -20 156 -96q-29 -18 -78 -18h-90q-142 -45 -181.5 -119t-39.5 -170v-72q79 -262 119 -338q62 -133 62 -212q0 -50 -102 -209q200 5 440 1l27 -111q-491 -49 -667 57v6l144 162q12 46 44 106v6q27 80 -80 277t-107 315q0 355 257 403zM536 711l4 -19 l-3 -60q-1 -18 -10 -15q-122 38 -442 -13l-83 -4l-2 6l1 18q2 42 329 85q115 31 206 2z" />
<glyph unicode="&#xa4;" horiz-adv-x="1014" />
<glyph unicode="&#xa5;" horiz-adv-x="1262" />
<glyph unicode="&#xa6;" horiz-adv-x="413" d="M153 606l20 7l59 -8q18 -2 14 -20q-49 -230 -32 -435l6 -86q-46 -46 -83 32q-21 339 16 510zM164 1281l20 7l59 -8q18 -2 14 -20q-49 -230 -32 -435l6 -86q-46 -46 -83 32q-21 339 16 510z" />
<glyph unicode="&#xa7;" horiz-adv-x="876" d="M703 842l6 -24q-16 -72 -66 -72l-9 67q-14 21 -85 58t-104 37h-36q-144 -20 -216 -94t-72 -110v-18q0 -144 240 -144q324 28 420 -144l6 -36q-40 -281 -300 -342l-54 -12q-216 31 -216 90q-9 0 -18 60q14 42 24 42h6q30 0 78 -60l102 -18q163 4 207.5 74t50.5 160 q-26 72 -222 72q-307 0 -384 108q-48 85 -48 150v12q-18 106 155.5 229t391.5 39t143 -124zM464 1438q154 0 222 -180l6 -24q-16 -72 -66 -72h-6q-17 4 -90 126q-69 36 -102 36h-36q-144 -20 -216 -94t-72 -110v-18q0 -144 240 -144q215 81 386 -104q0 -357 -260 -418 l-54 -12q-216 31 -216 90q-9 0 -18 60l108 -18l102 -18q163 4 207.5 74t50.5 160q-26 72 -180 181q-349 -109 -426 -1q-48 85 -48 150v12q-18 106 151 225t317 99z" />
<glyph unicode="&#xa8;" horiz-adv-x="800" d="M662 1473q-28 -68 -85 -68v-4q-45 0 -111 99l-9 28q17 72 76 72q125 -32 125 -112zM284 1504q0 -67 -138 -104q-116 47 -116 132q0 45 80 51q118 0 174 -79z" />
<glyph unicode="&#xa9;" horiz-adv-x="1674" />
<glyph unicode="&#xaa;" horiz-adv-x="648" />
<glyph unicode="&#xab;" horiz-adv-x="1300" d="M678 869q-112 -205 -442 -347q-46 -36 -60 -66v-12q0 -36 108 -78q42 -46 213.5 -129t171.5 -145l-18 -18q-375 136 -607 274q-60 38 -60 72q44 83 252 228q105 76 384 221h58zM1200 884q-112 -205 -442 -347q-46 -36 -60 -66v-12q0 -36 108 -78q42 -46 213.5 -129 t171.5 -145l-18 -18q-375 136 -607 274q-60 38 -60 72q44 83 252 228q105 76 384 221h58z" />
<glyph unicode="&#xac;" horiz-adv-x="1014" />
<glyph unicode="&#xad;" horiz-adv-x="935" d="M806 643q64 -38 12 -82l-118 8q-398 19 -591 -23q-60 32 -14 105q144 32 711 -8z" />
<glyph unicode="&#xae;" horiz-adv-x="1674" />
<glyph unicode="&#xaf;" horiz-adv-x="1076" d="M1017 1586l8 -19l-6 -60q-1 -18 -19 -15q-232 38 -838 -13l-158 -4l-4 6l2 18q3 42 624 85q218 31 391 2z" />
<glyph unicode="&#xb0;" horiz-adv-x="674" d="M326 1433q175 -35 175 -133v-17q0 -109 -250 -224q-91 46 -91 183l66 149q49 42 100 42zM288 1316l-28 -64q0 -59 39 -79q107 49 107 96v7q0 43 -75 57q-22 0 -43 -17z" />
<glyph unicode="&#xb1;" horiz-adv-x="1236" d="M625 1124l-24 -344l378 40q38 0 52 -48t-424 -104q0 -231 54 -390q-21 -72 -102 -72q-66 0 -66 192q0 240 -8 237l-70 3q-132 -22 -286 -77l-30 -6q-26 6 -42 30q-14 94 126 114q76 0 310 53v186q0 240 42 240q90 -6 90 -54zM1014 140l8 -19l-6 -60q-1 -18 -126 2.5 t-538 -22.5l-124 -18q-72 55 27 81q586 65 759 36z" />
<glyph unicode="&#xb2;" horiz-adv-x="1014" />
<glyph unicode="&#xb3;" horiz-adv-x="1014" />
<glyph unicode="&#xb4;" horiz-adv-x="442" d="M400 1592q-100 -132 -176 -171t-127 -4q-31 40 -23 51l3 5q142 41 219.5 136t103.5 -17z" />
<glyph unicode="&#xb5;" horiz-adv-x="1180" />
<glyph unicode="&#xb6;" horiz-adv-x="1024" />
<glyph unicode="&#xb7;" horiz-adv-x="475" d="M343.5 699.5q-29.5 -84.5 -126.5 -84.5q-96 0 -96 96q50 150 151 111.5t71.5 -123z" />
<glyph unicode="&#xb8;" horiz-adv-x="787" d="M132 -378q-54 76 211 47l65 11q17 7 23 46q-86 185 -104.5 262t30.5 135q95 -21 72 -125q92 -153 114 -290l2 -12q18 -106 -95 -125l-23 -4q-91 -15 -295 55z" />
<glyph unicode="&#xb9;" horiz-adv-x="1014" />
<glyph unicode="&#xba;" horiz-adv-x="718" />
<glyph unicode="&#xbb;" horiz-adv-x="1401" d="M665 869q279 -145 384 -221q208 -145 252 -228q0 -34 -60 -72q-232 -138 -607 -274l-18 18q0 62 171.5 145t213.5 129q108 42 108 78v12q-14 30 -60 66q-330 142 -442 347h58zM143 884q279 -145 384 -221q208 -145 252 -228q0 -34 -60 -72q-232 -138 -607 -274l-18 18 q0 62 171.5 145t213.5 129q108 42 108 78v12q-14 30 -60 66q-330 142 -442 347h58z" />
<glyph unicode="&#xbc;" horiz-adv-x="1708" />
<glyph unicode="&#xbd;" horiz-adv-x="1964" />
<glyph unicode="&#xbe;" horiz-adv-x="1708" />
<glyph unicode="&#xbf;" horiz-adv-x="1012" d="M212 -13l-23 4q-113 19 -95 125l2 12q22 137 373 535q103 145 116 224q-31 181 -96 192q-14 24 -11 44l3 18q21 76 84 65q30 -5 84 -117q49 -58 55 -222l-5 -29q-20 -123 -226 -298q-249 -295 -265 -394q6 -39 23 -46l65 -11q265 29 431 179q32 20 90 106l26 8l12 -2 q32 -24 22 -83q-39 -125 -370 -255q-204 -70 -295 -55zM520 1524q-87 102 -81 141q13 79 193 138q67 -37 63 -65q-22 -21 -78 -139q-41 -42 -97 -75z" />
<glyph unicode="&#xc0;" horiz-adv-x="1103" d="M544 1555h12q84 0 138 -265t138 -551q194 14 226 -10q-4 -95 -94 -90.5t-90 -13.5v-6q0 -77 144 -468l18 -72q0 -61 -75.5 -84.5t-236.5 642.5q-408 -13 -408 -48q-59 -516 -174 -546q-38 0 -48 60q108 458 108 492v6q-192 -20 -209 40q0 66 150 54q95 -4 95 26 q206 693 230 763.5t76 70.5zM552 1328l-176 -619q162 0 312 24q-99 534 -136 595zM595 1747l3 -5q8 -11 -22 -51q-51 -35 -127.5 4t-176.5 171q26 112 103.5 17t219.5 -136z" />
<glyph unicode="&#xc1;" horiz-adv-x="1103" d="M544 1555h12q84 0 138 -265t138 -551q194 14 226 -10q-4 -95 -94 -90.5t-90 -13.5v-6q0 -77 144 -468l18 -72q0 -61 -75.5 -84.5t-236.5 642.5q-408 -13 -408 -48q-59 -516 -174 -546q-38 0 -48 60q108 458 108 492v6q-192 -20 -209 40q0 66 150 54q95 -4 95 26 q206 693 230 763.5t76 70.5zM552 1328l-176 -619q162 0 312 24q-99 534 -136 595zM800 1939q-101 -132 -177 -171t-127 -4q-30 40 -23 51l4 5q142 41 219.5 136t103.5 -17z" />
<glyph unicode="&#xc2;" horiz-adv-x="1103" d="M544 1555h12q84 0 138 -265t138 -551q194 14 226 -10q-4 -95 -94 -90.5t-90 -13.5v-6q0 -77 144 -468l18 -72q0 -61 -75.5 -84.5t-236.5 642.5q-408 -13 -408 -48q-59 -516 -174 -546q-38 0 -48 60q108 458 108 492v6q-192 -20 -209 40q0 66 150 54q95 -4 95 26 q206 693 230 763.5t76 70.5zM552 1328l-176 -619q162 0 312 24q-99 534 -136 595zM521 1922q55 0 299 -372q-8 -42 -24 -42h-18q-333 308 -258 242l-290 -350h-6l-24 36q18 144 261 468z" />
<glyph unicode="&#xc3;" horiz-adv-x="1103" d="M544 1555h12q84 0 138 -265t138 -551q194 14 226 -10q-4 -95 -94 -90.5t-90 -13.5v-6q0 -77 144 -468l18 -72q0 -61 -75.5 -84.5t-236.5 642.5q-408 -13 -408 -48q-59 -516 -174 -546q-38 0 -48 60q108 458 108 492v6q-192 -20 -209 40q0 66 150 54q95 -4 95 26 q206 693 230 763.5t76 70.5zM552 1328l-176 -619q162 0 312 24q-99 534 -136 595zM576.5 1761.5q97.5 -110.5 183 -110.5t214.5 111q19 22 47 86l12 5q26 -22 26 -43q0 -92 -85 -172t-219 -74.5t-231 111.5t-177 102.5t-185 -219.5l-55 11h-3l-6 8q50 163 114.5 236.5 t165.5 66t198.5 -118z" />
<glyph unicode="&#xc4;" horiz-adv-x="1103" d="M544 1555h12q84 0 138 -265t138 -551q194 14 226 -10q-4 -95 -94 -90.5t-90 -13.5v-6q0 -77 144 -468l18 -72q0 -61 -75.5 -84.5t-236.5 642.5q-408 -13 -408 -48q-59 -516 -174 -546q-38 0 -48 60q108 458 108 492v6q-192 -20 -209 40q0 66 150 54q95 -4 95 26 q206 693 230 763.5t76 70.5zM552 1328l-176 -619q162 0 312 24q-99 534 -136 595zM832 1673q-28 -68 -85 -68v-4q-45 0 -111 99l-9 28q17 72 76 72q125 -32 125 -112zM454 1704q0 -67 -138 -104q-116 47 -116 132q0 45 80 51q118 0 174 -79z" />
<glyph unicode="&#xc5;" horiz-adv-x="1103" d="M544 1555h12q84 0 138 -265t138 -551q194 14 226 -10q-4 -95 -94 -90.5t-90 -13.5v-6q0 -77 144 -468l18 -72q0 -61 -75.5 -84.5t-236.5 642.5q-408 -13 -408 -48q-59 -516 -174 -546q-38 0 -48 60q108 458 108 492v6q-192 -20 -209 40q0 66 150 54q95 -4 95 26 q206 693 230 763.5t76 70.5zM552 1328l-176 -619q162 0 312 24q-99 534 -136 595zM566 1887q175 -35 175 -133v-17q0 -109 -250 -224q-91 46 -91 183l66 149q49 42 100 42zM528 1770l-28 -64q0 -59 39 -79q107 49 107 96v7q0 43 -75 57q-22 0 -43 -17z" />
<glyph unicode="&#xc6;" horiz-adv-x="2200" d="M544 1555h12q84 0 138 -265t138 -551q194 14 226 -10q-4 -95 -94 -90.5t-90 -13.5v-6q0 -77 144 -468l18 -72q0 -61 -75.5 -84.5t-236.5 642.5q-408 -13 -408 -48q-59 -516 -174 -546q-38 0 -48 60q108 458 108 492v6q-192 -20 -209 40q0 66 150 54q95 -4 95 26 q206 693 230 763.5t76 70.5zM552 1328l-176 -619q162 0 312 24q-99 534 -136 595zM927 1254q16 0 78 -48h18q902 82 918 0q6 -78 -282 -66h-78q-612 -13 -612 -72q-14 0 -18 -90v-120q0 -168 42 -168q251 76 523 105t263 -69q0 -42 -144 -24h-42q-290 0 -624 -120l-12 -36 v-18q0 -378 90 -378q360 102 996 234q60 -31 60 -81.5t-382 -95.5t-698 -153q-84 -36 -192 -54q-54 11 -54 36q66 63 66 162v120q0 208 -36 216h-12q-83 21 -83 66q30 78 89 66h24v396h-6l-83 5q-42 21 -42 48q0 60 95 67l108 66z" />
<glyph unicode="&#xc7;" d="M1077 1378q190 0 357 -363v-37q-40 -58 -109 -58q-70 0 -131 240q-68 87 -138 87h-80q-265 0 -692 -414q-152 -156 -152 -364v-15q-8 -171 167 -276q218 -58 349 -58h44q661 0 812.5 150.5t215 132t63.5 -42.5v-15q-179 -188 -604 -291q-225 -36 -414 -36h-197 q-407 0 -538 306q-22 77 -22 130q0 282 436 655q314 269 633 269zM509 -408q-54 76 211 47l65 11q17 7 23 46q-86 185 -104.5 262t30.5 135q95 -21 72 -125q92 -153 114 -290l2 -12q18 -106 -95 -125l-23 -4q-91 -15 -295 55z" />
<glyph unicode="&#xc8;" horiz-adv-x="1366" d="M219 1269q16 0 78 -48h18q902 82 918 0q6 -78 -282 -66h-78q-612 -13 -612 -72q-14 0 -18 -90v-120q0 -168 42 -168q251 76 523 105t263 -69q0 -42 -144 -24h-42q-290 0 -624 -120l-12 -36v-18q0 -378 90 -378q360 102 996 234q60 -31 60 -81.5t-382 -95.5t-698 -153 q-84 -36 -192 -54q-54 11 -54 36q66 63 66 162v120q0 208 -36 216h-12q-83 21 -83 66q30 78 89 66h24v396h-6l-83 5q-42 21 -42 48q0 60 95 67l108 66zM595 1473l3 -5q8 -11 -22 -51q-51 -35 -127.5 4t-176.5 171q26 112 103.5 17t219.5 -136z" />
<glyph unicode="&#xc9;" horiz-adv-x="1366" d="M219 1269q16 0 78 -48h18q902 82 918 0q6 -78 -282 -66h-78q-612 -13 -612 -72q-14 0 -18 -90v-120q0 -168 42 -168q251 76 523 105t263 -69q0 -42 -144 -24h-42q-290 0 -624 -120l-12 -36v-18q0 -378 90 -378q360 102 996 234q60 -31 60 -81.5t-382 -95.5t-698 -153 q-84 -36 -192 -54q-54 11 -54 36q66 63 66 162v120q0 208 -36 216h-12q-83 21 -83 66q30 78 89 66h24v396h-6l-83 5q-42 21 -42 48q0 60 95 67l108 66zM800 1592q-101 -132 -177 -171t-127 -4q-30 40 -23 51l4 5q142 41 219.5 136t103.5 -17z" />
<glyph unicode="&#xca;" horiz-adv-x="1366" d="M219 1269q16 0 78 -48h18q902 82 918 0q6 -78 -282 -66h-78q-612 -13 -612 -72q-14 0 -18 -90v-120q0 -168 42 -168q251 76 523 105t263 -69q0 -42 -144 -24h-42q-290 0 -624 -120l-12 -36v-18q0 -378 90 -378q360 102 996 234q60 -31 60 -81.5t-382 -95.5t-698 -153 q-84 -36 -192 -54q-54 11 -54 36q66 63 66 162v120q0 208 -36 216h-12q-83 21 -83 66q30 78 89 66h24v396h-6l-83 5q-42 21 -42 48q0 60 95 67l108 66zM475 1847q47 0 256 -319q-7 -36 -21 -36h-15q-285 264 -221 208l-248 -300h-5l-21 31q15 123 224 401z" />
<glyph unicode="&#xcb;" horiz-adv-x="1366" d="M219 1269q16 0 78 -48h18q902 82 918 0q6 -78 -282 -66h-78q-612 -13 -612 -72q-14 0 -18 -90v-120q0 -168 42 -168q251 76 523 105t263 -69q0 -42 -144 -24h-42q-290 0 -624 -120l-12 -36v-18q0 -378 90 -378q360 102 996 234q60 -31 60 -81.5t-382 -95.5t-698 -153 q-84 -36 -192 -54q-54 11 -54 36q66 63 66 162v120q0 208 -36 216h-12q-83 21 -83 66q30 78 89 66h24v396h-6l-83 5q-42 21 -42 48q0 60 95 67l108 66zM832 1673q-28 -68 -85 -68v-4q-45 0 -111 99l-9 28q17 72 76 72q125 -32 125 -112zM454 1704q0 -67 -138 -104 q-116 47 -116 132q0 45 80 51q118 0 174 -79z" />
<glyph unicode="&#xcc;" horiz-adv-x="1060" d="M946 1326q0 -54 -132 -54l-192 6q-19 0 -36 -18l6 -42q-24 -222 -24 -426v-354q0 -270 42 -270l397 49q24 0 36 -24v-18q0 -48 -400.5 -111.5t-446.5 -63.5q-47 0 -66 36v12q0 46 144 66l181 37l-13 215l6 744l6 144h-12v6l-18 -6q-260 0 -388 -39q-26 0 -36 30 q0 96 473 108.5t473 -27.5zM523 1620l3 -5q8 -11 -22 -51q-51 -35 -127.5 4t-176.5 171q26 112 103.5 17t219.5 -136z" />
<glyph unicode="&#xcd;" horiz-adv-x="1060" d="M946 1326q0 -54 -132 -54l-192 6q-19 0 -36 -18l6 -42q-24 -222 -24 -426v-354q0 -270 42 -270l397 49q24 0 36 -24v-18q0 -48 -400.5 -111.5t-446.5 -63.5q-47 0 -66 36v12q0 46 144 66l181 37l-13 215l6 744l6 144h-12v6l-18 -6q-260 0 -388 -39q-26 0 -36 30 q0 96 473 108.5t473 -27.5zM800 1739q-101 -132 -177 -171t-127 -4q-30 40 -23 51l4 5q142 41 219.5 136t103.5 -17z" />
<glyph unicode="&#xce;" horiz-adv-x="1060" d="M946 1326q0 -54 -132 -54l-192 6q-19 0 -36 -18l6 -42q-24 -222 -24 -426v-354q0 -270 42 -270l397 49q24 0 36 -24v-18q0 -48 -400.5 -111.5t-446.5 -63.5q-47 0 -66 36v12q0 46 144 66l181 37l-13 215l6 744l6 144h-12v6l-18 -6q-260 0 -388 -39q-26 0 -36 30 q0 96 473 108.5t473 -27.5zM475 1847q47 0 256 -319q-7 -36 -21 -36h-15q-285 264 -221 208l-248 -300h-5l-21 31q15 123 224 401z" />
<glyph unicode="&#xcf;" horiz-adv-x="1060" d="M946 1326q0 -54 -132 -54l-192 6q-19 0 -36 -18l6 -42q-24 -222 -24 -426v-354q0 -270 42 -270l397 49q24 0 36 -24v-18q0 -48 -400.5 -111.5t-446.5 -63.5q-47 0 -66 36v12q0 46 144 66l181 37l-13 215l6 744l6 144h-12v6l-18 -6q-260 0 -388 -39q-26 0 -36 30 q0 96 473 108.5t473 -27.5zM832 1673q-28 -68 -85 -68v-4q-45 0 -111 99l-9 28q17 72 76 72q125 -32 125 -112zM454 1704q0 -67 -138 -104q-116 47 -116 132q0 45 80 51q118 0 174 -79z" />
<glyph unicode="&#xd0;" horiz-adv-x="1570" d="M910 1299q235 -42 354 -96q258 -147 258 -276v-12q0 -249 -570 -714q-381 -204 -420 -204q-36 20 -180 42q-18 0 -84 558q-42 235 -72 540q-78 40 -78 60l-6 30q0 98 78 102t720 -30zM334 1125q2 -388 150 -996l6 -6q0 -12 18 -12q35 24 186 48q432 179 690 600 q42 88 42 138q0 169 -378 294q-185 36 -444 36h-66q-198 0 -198 -42zM892 711l8 -19l-6 -60q-1 -18 -19 -15q-232 38 -854 -90l12 73l-4 6l2 18q3 42 470 85q218 31 391 2z" />
<glyph unicode="&#xd1;" horiz-adv-x="1430" d="M1257 1575q64 9 53 -84.5t-11 -389.5v-174q15 -690 66 -690q34 -150 -48 -150h-6q-365 0 -762 468q-181 169 -282 378q-73 102 -108 102q-18 -4 -18 -48v-222q0 -426 42 -714q-54 -43 -102 -48q-54 0 -54 384l8 783q4 147 106 147q66 -5 111.5 -151t500.5 -671 q321 -288 450 -288h6l12 12q-36 240 -36 780v330q0 246 72 246zM618.5 1681.5q97.5 -110.5 183 -110.5t214.5 111q19 22 47 86l12 5q26 -22 26 -43q0 -92 -85 -172t-219 -74.5t-231 111.5t-177 102.5t-185 -219.5l-55 11h-3l-6 8q50 163 114.5 236.5t165.5 66t198.5 -118z " />
<glyph unicode="&#xd2;" d="M1064 1486q122 0 353 -140q305 -163 305 -438v-67q2 -636 -678 -796q-150 -33 -300 -40l-107 7q-388 0 -594 333q-39 112 -40 187q0 381 365 664.5t696 289.5zM96 559q0 -222 241 -374q150 -80 340 -80h80q349 12 494.5 98t257.5 220.5t112 577.5q0 69 -144 211 q-30 14 -86 14l-54 -34h-6q-55 81 -167 81q-207 0 -207 -61q0 -60 -33 -60q-80 31 -80 94q0 55 126 120v7h-6q-307 -54 -507 -207q-137 -121 -221.5 -224t-132.5 -337zM923 1620l3 -5q8 -11 -22 -51q-51 -35 -127.5 4t-176.5 233q26 112 103.5 -14t219.5 -167z" />
<glyph unicode="&#xd3;" d="M1064 1486q122 0 353 -140q305 -163 305 -438v-67q2 -636 -678 -796q-150 -33 -300 -40l-107 7q-388 0 -594 333q-39 112 -40 187q0 381 365 664.5t696 289.5zM96 559q0 -222 241 -374q150 -80 340 -80h80q349 12 494.5 98t257.5 220.5t112 577.5q0 69 -144 211 q-30 14 -86 14l-54 -34h-6q-55 81 -167 81q-207 0 -207 -61q0 -60 -33 -60q-80 31 -80 94q0 55 126 120v7h-6q-307 -54 -507 -207q-137 -121 -221.5 -224t-132.5 -337zM1200 1792q-101 -132 -177 -171t-127 -4q-30 40 -23 51l4 5q142 41 219.5 136t103.5 -17z" />
<glyph unicode="&#xd4;" d="M1064 1486q122 0 353 -140q305 -163 305 -438v-67q2 -636 -678 -796q-150 -33 -300 -40l-107 7q-388 0 -594 333q-39 112 -40 187q0 381 365 664.5t696 289.5zM96 559q0 -222 241 -374q150 -80 340 -80h80q349 12 494.5 98t257.5 220.5t112 577.5q0 69 -144 211 q-30 14 -86 14l-54 -34h-6q-55 81 -167 81q-207 0 -207 -61q0 -60 -33 -60q-80 31 -80 94q0 55 126 120v7h-6q-307 -54 -507 -207q-137 -121 -221.5 -224t-132.5 -337zM944 1847q47 0 256 -319q-7 -36 -21 -36h-15q-285 264 -221 208l-248 -300h-5l-21 31q15 123 224 401z " />
<glyph unicode="&#xd5;" d="M1064 1486q122 0 353 -140q305 -163 305 -438v-67q2 -636 -678 -796q-150 -33 -300 -40l-107 7q-388 0 -594 333q-39 112 -40 187q0 381 365 664.5t696 289.5zM96 559q0 -222 241 -374q150 -80 340 -80h80q349 12 494.5 98t257.5 220.5t112 577.5q0 69 -144 211 q-30 14 -86 14l-54 -34h-6q-55 81 -167 81q-207 0 -207 -61q0 -60 -33 -60q-80 31 -80 94q0 55 126 120v7h-6q-307 -54 -507 -207q-137 -121 -221.5 -224t-132.5 -337zM996.5 1757.5q97.5 -110.5 183 -110.5t214.5 111q19 22 47 86l12 5q26 -22 26 -43q0 -92 -85 -172 t-219 -74.5t-231 111.5t-177 102.5t-185 -219.5l-55 11h-3l-6 8q50 163 114.5 236.5t165.5 66t198.5 -118z" />
<glyph unicode="&#xd6;" d="M1064 1486q122 0 353 -140q305 -163 305 -438v-67q2 -636 -678 -796q-150 -33 -300 -40l-107 7q-388 0 -594 333q-39 112 -40 187q0 381 365 664.5t696 289.5zM96 559q0 -222 241 -374q150 -80 340 -80h80q349 12 494.5 98t257.5 220.5t112 577.5q0 69 -144 211 q-30 14 -86 14l-54 -34h-6q-55 81 -167 81q-207 0 -207 -61q0 -60 -33 -60q-80 31 -80 94q0 55 126 120v7h-6q-307 -54 -507 -207q-137 -121 -221.5 -224t-132.5 -337zM1332 1673q-28 -68 -85 -68v-4q-45 0 -111 99l-9 28q17 72 76 72q125 -32 125 -112zM954 1704 q0 -67 -138 -104q-116 47 -116 132q0 45 80 51q118 0 174 -79z" />
<glyph unicode="&#xd7;" horiz-adv-x="948" d="M804 992q54 -6 54 -24v-18q0 -33 -180 -258q-108 -181 -108 -216v-18q0 -60 210 -174q74 -63 90 -96q0 -19 -42 -42q-46 0 -312 198h-36q-62 0 -192 -306q0 -54 -42 -54q-72 18 -72 54l204 336l6 36v6q0 60 -366 378l-24 66q0 41 78 84q28 0 318 -354q54 -42 78 -42h36 q11 2 60 120q142 214 198 318z" />
<glyph unicode="&#xd8;" d="M1064 1486q122 0 353 -140q305 -163 305 -438v-67q2 -636 -678 -796q-150 -33 -300 -40l-107 7q-388 0 -594 333q-39 112 -40 187q0 381 365 664.5t696 289.5zM96 559q0 -222 241 -374q150 -80 340 -80h80q349 12 494.5 98t257.5 220.5t112 577.5q0 69 -144 211 q-30 14 -86 14l-54 -34h-6q-55 81 -167 81q-207 0 -207 -61q0 -60 -33 -60q-80 31 -80 94q0 55 126 120v7h-6q-307 -54 -507 -207q-137 -121 -221.5 -224t-132.5 -337zM1432 1576q0 -58 -60 -108q-144 -172 -459 -716.5t-443 -773.5q-123 -217 -240 -324q-18 0 -30 24v6 q0 45 102 216q80 97 240 438q458 716 548 878q53 153 312 384h12q9 0 18 -24z" />
<glyph unicode="&#xd9;" horiz-adv-x="968" d="M102 1203q66 0 60 -114t-9 -474t51 -360q28 0 77 35t103 112t174 267q133 246 210 486q25 24 60 24q54 0 54 -264q6 -864 18 -864q-23 -54 -84 -54q-50 0 -72 84l18 150q-15 600 -36 600h-6q-47 -205 -372 -594q-119 -120 -204 -120q-114 0 -114 474v48q0 558 42 558z M395 1473l3 -5q8 -11 -22 -51q-51 -35 -127.5 4t-176.5 171q26 112 103.5 17t219.5 -136z" />
<glyph unicode="&#xda;" horiz-adv-x="968" d="M102 1203q66 0 60 -114t-9 -474t51 -360q28 0 77 35t103 112t174 267q133 246 210 486q25 24 60 24q54 0 54 -264q6 -864 18 -864q-23 -54 -84 -54q-50 0 -72 84l18 150q-15 600 -36 600h-6q-47 -205 -372 -594q-119 -120 -204 -120q-114 0 -114 474v48q0 558 42 558z M928 1739q-101 -132 -177 -171t-127 -4q-30 40 -23 51l4 5q142 41 219.5 136t103.5 -17z" />
<glyph unicode="&#xdb;" horiz-adv-x="968" d="M102 1203q66 0 60 -114t-9 -474t51 -360q28 0 77 35t103 112t174 267q133 246 210 486q25 24 60 24q54 0 54 -264q6 -864 18 -864q-23 -54 -84 -54q-50 0 -72 84l18 150q-15 600 -36 600h-6q-47 -205 -372 -594q-119 -120 -204 -120q-114 0 -114 474v48q0 558 42 558z M475 1847q47 0 256 -319q-7 -36 -21 -36h-15q-285 264 -221 208l-248 -300h-5l-21 31q15 123 224 401z" />
<glyph unicode="&#xdc;" horiz-adv-x="968" d="M102 1203q66 0 60 -114t-9 -474t51 -360q28 0 77 35t103 112t174 267q133 246 210 486q25 24 60 24q54 0 54 -264q6 -864 18 -864q-23 -54 -84 -54q-50 0 -72 84l18 150q-15 600 -36 600h-6q-47 -205 -372 -594q-119 -120 -204 -120q-114 0 -114 474v48q0 558 42 558z M832 1673q-28 -68 -85 -68v-4q-45 0 -111 99l-9 28q17 72 76 72q125 -32 125 -112zM454 1704q0 -67 -138 -104q-116 47 -116 132q0 45 80 51q118 0 174 -79z" />
<glyph unicode="&#xdd;" horiz-adv-x="1074" d="M961 1382q60 -12 60 -60q-48 -112 -48 -168q-10 -82 -18 -1032q0 -352 -124 -692.5t-358.5 -656t-731.5 -315.5h-36q-257 14 -270 48v24l12 18q89 -24 246 -24q507 8 732.5 344t323.5 626t98 682q-7 41 -39 56l-255 286q-107 143 -540 600l-6 30v12q52 66 90 66 q39 0 65 -57t457 -525q18 -55 210 -228h12l6 24q-18 344 -18 576q0 366 126 366h6zM1000 1739q-101 -132 -177 -171t-127 -4q-30 40 -23 51l4 5q142 41 219.5 136t103.5 -17z" />
<glyph unicode="&#xde;" horiz-adv-x="816" d="M2 501q16 77 36 74q610 -98 618 -45l5 30q12 73 -64 168q-168 173 -202 178q-41 29 -171 70q-73 76 -69 102q7 42 72 31l294 -174l-1 -6q298 -302 276 -440l-2 -11q-89 -96 -225 -74q-262 42 -512 28q-65 10 -55 69zM193 1252q3 -185 -5 -640q-20 -376 5 -500 q10 -198 -11 -238l-3 -5q-22 -16 -38 -8q-53 150 -59 399q-5 263 10.5 695t70.5 444.5t30 -147.5z" />
<glyph unicode="&#xdf;" horiz-adv-x="863" d="M638 1331q109 0 162 -144v-6q0 -116 -216 -372v-18q0 -25 90 -78l48 -120q-19 -139 -228 -378q-167 -167 -166.5 -108t160.5 258q114 122 114 180v48q-32 60 -90 60h-6q-48 0 -288 -144l-18 -6q-36 12 -36 24v18q0 101 150 162l234 186l96 150q36 78 36 108v18 q-21 42 -60 42h-30q-148 0 -450 -282l-30 -6h-6q-47 0 -72 36q26 79 258 228q215 144 348 144zM88 854q19 -184 50 -638q12 -377 47 -497q27 -198 9 -239l-3 -6q-20 -17 -37 -10q-65 145 -92 393q-28 261 -48.5 693t33 449t41.5 -145z" />
<glyph unicode="&#xe0;" horiz-adv-x="910" d="M234 1031q54 0 120 -192q115 -212 156 -264q19 -48 42 -48l186 -2q78 -8 78 -24v-6q-11 -16 -180 -64q-36 -4 -36 -18q23 -79 168 -294l18 -78q0 -36 -36 -60q-95 0 -270 390h-54q-178 -23 -306 -120v-18q0 -168 -78 -168h-6q-76 -6 36 384q72 313 72 426l-12 66 q0 83 102 90zM180 437l6 -6h6q192 34 192 66q0 77 -138 234h-6q-22 0 -60 -294zM195 1273l4 -5q7 -11 -23 -51q-51 -35 -127 4t-177 171q26 112 103.5 17t219.5 -136z" />
<glyph unicode="&#xe1;" horiz-adv-x="910" d="M234 1031q54 0 120 -192q115 -212 156 -264q19 -48 42 -48l186 -2q78 -8 78 -24v-6q-11 -16 -180 -64q-36 -4 -36 -18q23 -79 168 -294l18 -78q0 -36 -36 -60q-95 0 -270 390h-54q-178 -23 -306 -120v-18q0 -168 -78 -168h-6q-76 -6 36 384q72 313 72 426l-12 66 q0 83 102 90zM180 437l6 -6h6q192 34 192 66q0 77 -138 234h-6q-22 0 -60 -294zM472 1471q-22 -169 -68.5 -241.5t-108.5 -62.5q-47 23 -46 38l1 6q102 104 122.5 229t99.5 31z" />
<glyph unicode="&#xe2;" horiz-adv-x="910" d="M234 1031q54 0 120 -192q115 -212 156 -264q19 -48 42 -48l186 -2q78 -8 78 -24v-6q-11 -16 -180 -64q-36 -4 -36 -18q23 -79 168 -294l18 -78q0 -36 -36 -60q-95 0 -270 390h-54q-178 -23 -306 -120v-18q0 -168 -78 -168h-6q-76 -6 36 384q72 313 72 426l-12 66 q0 83 102 90zM180 437l6 -6h6q192 34 192 66q0 77 -138 234h-6q-22 0 -60 -294zM251 1561q43 0 234 -291q-6 -33 -19 -33h-14q-260 241 -202 190l-227 -274h-4l-19 28q14 113 204 366z" />
<glyph unicode="&#xe3;" horiz-adv-x="910" d="M234 1031q54 0 120 -192q115 -212 156 -264q19 -48 42 -48l186 -2q78 -8 78 -24v-6q-11 -16 -180 -64q-36 -4 -36 -18q23 -79 168 -294l18 -78q0 -36 -36 -60q-95 0 -270 390h-54q-178 -23 -306 -120v-18q0 -168 -78 -168h-6q-76 -6 36 384q72 313 72 426l-12 66 q0 83 102 90zM180 437l6 -6h6q192 34 192 66q0 77 -138 234h-6q-22 0 -60 -294zM248 1313.5q71 -80.5 133.5 -80.5t156.5 81q14 16 34 63l9 3q19 -16 19 -31q0 -67 -62 -125.5t-160 -54.5t-168.5 81.5t-129 75t-135.5 -160.5l-40 8h-2l-4 6q36 119 83 172.5t121 48t145 -86z " />
<glyph unicode="&#xe4;" horiz-adv-x="910" d="M234 1031q54 0 120 -192q115 -212 156 -264q19 -48 42 -48l186 -2q78 -8 78 -24v-6q-11 -16 -180 -64q-36 -4 -36 -18q23 -79 168 -294l18 -78q0 -36 -36 -60q-95 0 -270 390h-54q-178 -23 -306 -120v-18q0 -168 -78 -168h-6q-76 -6 36 384q72 313 72 426l-12 66 q0 83 102 90zM180 437l6 -6h6q192 34 192 66q0 77 -138 234h-6q-22 0 -60 -294zM532 1273q-28 -68 -85 -68v-4q-45 0 -111 99l-9 28q17 72 76 72q125 -32 125 -112zM154 1304q0 -67 -138 -104q-116 47 -116 132q0 45 80 51q118 0 174 -79z" />
<glyph unicode="&#xe5;" horiz-adv-x="910" d="M234 1031q54 0 120 -192q115 -212 156 -264q19 -48 42 -48l186 -2q78 -8 78 -24v-6q-11 -16 -180 -64q-36 -4 -36 -18q23 -79 168 -294l18 -78q0 -36 -36 -60q-95 0 -270 390h-54q-178 -23 -306 -120v-18q0 -168 -78 -168h-6q-76 -6 36 384q72 313 72 426l-12 66 q0 83 102 90zM180 437l6 -6h6q192 34 192 66q0 77 -138 234h-6q-22 0 -60 -294zM266 1433q175 -35 175 -133v-17q0 -109 -250 -224q-91 46 -91 183l66 149q49 42 100 42zM228 1316l-28 -64q0 -59 39 -79q107 49 107 96v7q0 43 -75 57q-22 0 -43 -17z" />
<glyph unicode="&#xe6;" horiz-adv-x="1477" d="M234 1031q54 0 120 -192q115 -212 156 -264q19 -48 42 -48l186 -2q78 -8 78 -24v-6q-11 -16 -180 -64q-36 -4 -36 -18q23 -79 168 -294l18 -78q0 -36 -36 -60q-95 0 -270 390h-54q-178 -23 -306 -120v-18q0 -168 -78 -168h-6q-76 -6 36 384q72 313 72 426l-12 66 q0 83 102 90zM180 437l6 -6h6q192 34 192 66q0 77 -138 234h-6q-22 0 -60 -294zM1250 944q84 -7 84 -60q-16 -22 -474 -120q-96 -24 -96 -96l-12 -108v-66l12 -12h48q35 0 516 114l42 6q30 -8 30 -18q0 -50 -510 -180q-112 -46 -120 -66v-18l30 -216q0 -72 -78 -72 q-84 0 -84 222q-16 480 -54 480l-36 48q77 102 114 102l72 -6q277 0 516 66zM1337 192l18 -6v-24q-2 -13 -180 -108q-147 -54 -264 -54q-147 0 -180 108q8 78 48 78q24 0 132 -54l114 -12h6q106 0 198 48q78 0 108 24z" />
<glyph unicode="&#xe7;" horiz-adv-x="1024" d="M469 894q113 0 222.5 -107.5t38.5 -147t-141 56.5q-63 78 -150 78q-171 0 -312 -312q-18 -54 -24 -150q0 -150 168 -204l90 -6h42q103 0 378 90q81 65 150 78q24 -9 24 -18v-12q-266 -240 -606 -240q-241 0 -330 222l-6 66v66q0 260 324 498q36 24 132 42zM209 -432 q-54 76 211 47l65 11q17 7 23 46q-86 185 -104.5 262t30.5 135q95 -21 72 -125q92 -153 114 -290l2 -12q18 -106 -95 -125l-23 -4q-91 -15 -295 55z" />
<glyph unicode="&#xe8;" horiz-adv-x="900" d="M695 944q84 -7 84 -60q-16 -22 -474 -120q-96 -24 -96 -96l-12 -108v-66l12 -12h48q35 0 516 114l42 6q30 -8 30 -18q0 -50 -510 -180q-112 -46 -120 -66v-18l30 -216q0 -72 -78 -72q-84 0 -84 222q-16 480 -54 480l-36 48q77 102 114 102l72 -6q277 0 516 66zM782 192 l18 -6v-24q-2 -13 -180 -108q-147 -54 -264 -54q-147 0 -180 108q8 78 48 78q24 0 132 -54l114 -12h6q106 0 198 48q78 0 108 24zM395 1220l3 -5q8 -11 -22 -51q-51 -35 -127.5 4t-176.5 171q26 112 103.5 17t219.5 -136z" />
<glyph unicode="&#xe9;" horiz-adv-x="900" d="M695 944q84 -7 84 -60q-16 -22 -474 -120q-96 -24 -96 -96l-12 -108v-66l12 -12h48q35 0 516 114l42 6q30 -8 30 -18q0 -50 -510 -180q-112 -46 -120 -66v-18l30 -216q0 -72 -78 -72q-84 0 -84 222q-16 480 -54 480l-36 48q77 102 114 102l72 -6q277 0 516 66zM782 192 l18 -6v-24q-2 -13 -180 -108q-147 -54 -264 -54q-147 0 -180 108q8 78 48 78q24 0 132 -54l114 -12h6q106 0 198 48q78 0 108 24zM600 1392q-101 -132 -177 -171t-127 -4q-30 40 -23 51l4 5q142 41 219.5 136t103.5 -17z" />
<glyph unicode="&#xea;" horiz-adv-x="900" d="M695 944q84 -7 84 -60q-16 -22 -474 -120q-96 -24 -96 -96l-12 -108v-66l12 -12h48q35 0 516 114l42 6q30 -8 30 -18q0 -50 -510 -180q-112 -46 -120 -66v-18l30 -216q0 -72 -78 -72q-84 0 -84 222q-16 480 -54 480l-36 48q77 102 114 102l72 -6q277 0 516 66zM782 192 l18 -6v-24q-2 -13 -180 -108q-147 -54 -264 -54q-147 0 -180 108q8 78 48 78q24 0 132 -54l114 -12h6q106 0 198 48q78 0 108 24zM251 1561q43 0 234 -291q-6 -33 -19 -33h-14q-260 241 -202 190l-227 -274h-4l-19 28q14 113 204 366z" />
<glyph unicode="&#xeb;" horiz-adv-x="900" d="M695 944q84 -7 84 -60q-16 -22 -474 -120q-96 -24 -96 -96l-12 -108v-66l12 -12h48q35 0 516 114l42 6q30 -8 30 -18q0 -50 -510 -180q-112 -46 -120 -66v-18l30 -216q0 -72 -78 -72q-84 0 -84 222q-16 480 -54 480l-36 48q77 102 114 102l72 -6q277 0 516 66zM782 192 l18 -6v-24q-2 -13 -180 -108q-147 -54 -264 -54q-147 0 -180 108q8 78 48 78q24 0 132 -54l114 -12h6q106 0 198 48q78 0 108 24zM632 1073q-28 -68 -85 -68v-4q-45 0 -111 99l-9 28q17 72 76 72q125 -32 125 -112zM254 1104q0 -67 -138 -104q-116 47 -116 132q0 45 80 51 q118 0 174 -79z" />
<glyph unicode="&#xec;" horiz-adv-x="412" d="M201 1016q60 0 60 -174v-72l-6 -408q0 -217 15 -275t-45 -91h-36q-72 50 -72 150l12 600q0 93 -7 155t19 109zM195 1273l4 -5q7 -11 -23 -51q-51 -35 -127 4t-177 171q26 112 103.5 17t219.5 -136z" />
<glyph unicode="&#xed;" horiz-adv-x="412" d="M201 1016q60 0 60 -174v-72l-6 -408q0 -217 15 -275t-45 -91h-36q-72 50 -72 150l12 600q0 93 -7 155t19 109zM400 1392q-100 -132 -176 -171t-127 -4q-31 40 -23 51l3 5q142 41 219.5 136t103.5 -17z" />
<glyph unicode="&#xee;" horiz-adv-x="412" d="M201 1016q60 0 60 -174v-72l-6 -408q0 -217 15 -275t-45 -91h-36q-72 50 -72 150l12 600q0 93 -7 155t19 109zM251 1561q43 0 234 -291q-6 -33 -19 -33h-14q-260 241 -202 190l-227 -274h-4l-19 28q14 113 204 366z" />
<glyph unicode="&#xef;" horiz-adv-x="412" d="M201 1016q60 0 60 -174v-72l-6 -408q0 -217 15 -275t-45 -91h-36q-72 50 -72 150l12 600q0 93 -7 155t19 109zM432 1273q-28 -68 -85 -68v-4q-45 0 -111 99l-9 28q17 72 76 72q125 -32 125 -112zM54 1304q0 -67 -138 -104q-116 47 -116 132q0 45 80 51q118 0 174 -79z " />
<glyph unicode="&#xf0;" horiz-adv-x="1112" d="M526 980q148 0 246 -102q312 -176 282 -492q0 -147 -240 -300q-197 -90 -354 -90q-344 0 -420 216q-30 73 -30 144q30 428 414 600q67 24 102 24zM118 398v-54q0 -183 228 -252h60q311 0 414 102q132 55 132 162q30 297 -150 402l-36 6h-54l-6 -6q-116 60 -168 60h-60 q-178 0 -294 -156q-66 -213 -66 -264zM709.5 990q-225.5 336 -557.5 344l12 66h36q322 0 556.5 -315.5t206.5 -373t-253.5 278.5zM807 1190l6 -13l-5 -42q0 -12 -13 -10q-161 26 -595 -63l8 51l-2 4l1 13q2 29 328 59q151 21 272 1z" />
<glyph unicode="&#xf1;" horiz-adv-x="935" d="M916 1038l12 -12q0 -94 -60 -342q-42 -344 -42 -450v-24q-16 -232 -114 -120l-228 144q-292 282 -318 282v-6l12 -444q0 -66 -66 -66q-54 0 -54 402q-7 0 -12 162q-36 108 -36 150q0 102 72 102q62 0 126 -138q128 -170 318 -348q152 -96 174 -96q53 193 90 576 q16 324 126 228zM349 1313.5q71 -80.5 133.5 -80.5t156.5 81q14 16 34 63l9 3q19 -16 19 -31q0 -67 -62 -125.5t-160 -54.5t-168.5 81.5t-129 75t-135.5 -160.5l-40 8h-2l-4 6q36 119 83 172.5t121 48t145 -86z" />
<glyph unicode="&#xf2;" horiz-adv-x="1112" d="M526 980q148 0 246 -102q312 -176 282 -492q0 -147 -240 -300q-197 -90 -354 -90q-344 0 -420 216q-30 73 -30 144q30 428 414 600q67 24 102 24zM118 398v-54q0 -183 228 -252h60q311 0 414 102q132 55 132 162q30 297 -150 402l-36 6h-54l-6 -6q-116 60 -168 60h-60 q-178 0 -294 -156q-66 -213 -66 -264zM523 1220l3 -5q8 -11 -22 -51q-51 -35 -127.5 4t-176.5 171q26 112 103.5 17t219.5 -136z" />
<glyph unicode="&#xf3;" horiz-adv-x="1112" d="M526 980q148 0 246 -102q312 -176 282 -492q0 -147 -240 -300q-197 -90 -354 -90q-344 0 -420 216q-30 73 -30 144q30 428 414 600q67 24 102 24zM118 398v-54q0 -183 228 -252h60q311 0 414 102q132 55 132 162q30 297 -150 402l-36 6h-54l-6 -6q-116 60 -168 60h-60 q-178 0 -294 -156q-66 -213 -66 -264zM728 1392q-101 -132 -177 -171t-127 -4q-30 40 -23 51l4 5q142 41 219.5 136t103.5 -17z" />
<glyph unicode="&#xf4;" horiz-adv-x="1112" d="M526 980q148 0 246 -102q312 -176 282 -492q0 -147 -240 -300q-197 -90 -354 -90q-344 0 -420 216q-30 73 -30 144q30 428 414 600q67 24 102 24zM118 398v-54q0 -183 228 -252h60q311 0 414 102q132 55 132 162q30 297 -150 402l-36 6h-54l-6 -6q-116 60 -168 60h-60 q-178 0 -294 -156q-66 -213 -66 -264zM566 1408q43 0 234 -291q-6 -33 -19 -33h-14q-260 241 -202 190l-227 -274h-4l-19 28q14 113 204 366z" />
<glyph unicode="&#xf5;" horiz-adv-x="1112" d="M526 980q148 0 246 -102q312 -176 282 -492q0 -147 -240 -300q-197 -90 -354 -90q-344 0 -420 216q-30 73 -30 144q30 428 414 600q67 24 102 24zM118 398v-54q0 -183 228 -252h60q311 0 414 102q132 55 132 162q30 297 -150 402l-36 6h-54l-6 -6q-116 60 -168 60h-60 q-178 0 -294 -156q-66 -213 -66 -264zM549 1244.5q71 -80.5 133.5 -80.5t156.5 81q14 16 34 63l9 3q19 -16 19 -31q0 -67 -62 -125.5t-160 -54.5t-168.5 81.5t-129 75t-135.5 -160.5l-40 8h-2l-4 6q36 119 83 172.5t121 48t145 -86z" />
<glyph unicode="&#xf6;" horiz-adv-x="1112" d="M526 980q148 0 246 -102q312 -176 282 -492q0 -147 -240 -300q-197 -90 -354 -90q-344 0 -420 216q-30 73 -30 144q30 428 414 600q67 24 102 24zM118 398v-54q0 -183 228 -252h60q311 0 414 102q132 55 132 162q30 297 -150 402l-36 6h-54l-6 -6q-116 60 -168 60h-60 q-178 0 -294 -156q-66 -213 -66 -264zM832 1173q-28 -68 -85 -68v-4q-45 0 -111 99l-9 28q17 72 76 72q125 -32 125 -112zM454 1204q0 -67 -138 -104q-116 47 -116 132q0 45 80 51q118 0 174 -79z" />
<glyph unicode="&#xf7;" horiz-adv-x="943" d="M841 577l8 -21l-6 -68q-1 -20 -19 -16q-232 42 -573 1l-142 -8q-15 77 14 82q545 62 718 30zM569.5 199q-25.5 -74 -110.5 -74q-84 0 -84 84q44 131 132 97.5t62.5 -107.5zM575.5 822q-25.5 -74 -110.5 -74q-84 0 -84 84q44 131 132 97.5t62.5 -107.5z" />
<glyph unicode="&#xf8;" horiz-adv-x="1112" d="M526 980q148 0 246 -102q312 -176 282 -492q0 -147 -240 -300q-197 -90 -354 -90q-344 0 -420 216q-30 73 -30 144q30 428 414 600q67 24 102 24zM118 398v-54q0 -183 228 -252h60q311 0 414 102q132 55 132 162q30 297 -150 402l-36 6h-54l-6 -6q-116 60 -168 60h-60 q-178 0 -294 -156q-66 -213 -66 -264zM713 697.5q-315 -544.5 -443 -773.5q-123 -217 -240 -324q-18 0 -30 24v6q0 45 102 216q80 97 240 438q458 716 548 878q53 153 95.5 116.5t-272.5 -581z" />
<glyph unicode="&#xf9;" horiz-adv-x="816" d="M75 852q78 -4 78 -24q0 -618 54 -618h30q74 0 156 90q144 193 144 228q22 45 42 180q63 84 90 84q42 0 42 -66l-6 -492q0 -126 48 -186q0 -22 -60 -60q-102 52 -102 270l-6 150h-6q-251 -342 -390 -342h-12q-108 73 -108 210q0 266 -54 510q0 66 60 66zM395 1073l3 -5 q8 -11 -22 -51q-51 -35 -127.5 4t-176.5 171q26 112 103.5 17t219.5 -136z" />
<glyph unicode="&#xfa;" horiz-adv-x="816" d="M75 852q78 -4 78 -24q0 -618 54 -618h30q74 0 156 90q144 193 144 228q22 45 42 180q63 84 90 84q42 0 42 -66l-6 -492q0 -126 48 -186q0 -22 -60 -60q-102 52 -102 270l-6 150h-6q-251 -342 -390 -342h-12q-108 73 -108 210q0 266 -54 510q0 66 60 66zM728 1392 q-101 -132 -177 -171t-127 -4q-30 40 -23 51l4 5q142 41 219.5 136t103.5 -17z" />
<glyph unicode="&#xfb;" horiz-adv-x="816" d="M75 852q78 -4 78 -24q0 -618 54 -618h30q74 0 156 90q144 193 144 228q22 45 42 180q63 84 90 84q42 0 42 -66l-6 -492q0 -126 48 -186q0 -22 -60 -60q-102 52 -102 270l-6 150h-6q-251 -342 -390 -342h-12q-108 73 -108 210q0 266 -54 510q0 66 60 66zM366 1400 q43 0 234 -291q-6 -33 -19 -33h-14q-260 241 -202 190l-227 -274h-4l-19 28q14 113 204 366z" />
<glyph unicode="&#xfc;" horiz-adv-x="816" d="M75 852q78 -4 78 -24q0 -618 54 -618h30q74 0 156 90q144 193 144 228q22 45 42 180q63 84 90 84q42 0 42 -66l-6 -492q0 -126 48 -186q0 -22 -60 -60q-102 52 -102 270l-6 150h-6q-251 -342 -390 -342h-12q-108 73 -108 210q0 266 -54 510q0 66 60 66zM632 1073 q-28 -68 -85 -68v-4q-45 0 -111 99l-9 28q17 72 76 72q125 -32 125 -112zM254 1104q0 -67 -138 -104q-116 47 -116 132q0 45 80 51q118 0 174 -79z" />
<glyph unicode="&#xfd;" horiz-adv-x="720" d="M635 950q72 -18 72 -48q-40 -86 -229 -424l8 -74l-6 -108v-180l12 -75q-16 -42 -60 -42q-72 0 -72 419q0 50 -279 320q-57 73 -66 114q23 78 78 78q46 -11 114 -150q82 -118 205 -182q153 252 193 346zM728 1392q-101 -132 -177 -171t-127 -4q-30 40 -23 51l4 5 q142 41 219.5 136t103.5 -17z" />
<glyph unicode="&#xfe;" horiz-adv-x="1010" d="M2 101q16 77 36 74q610 -98 618 -45l5 30q12 73 -64 168q-168 173 -202 178q-41 29 -171 70q-73 76 -69 102q7 42 72 31l294 -174l-1 -6q298 -302 276 -440l-2 -11q-89 -96 -225 -74q-262 42 -512 28q-65 10 -55 69zM193 852q3 -185 -5 -640q-20 -376 5 -500 q10 -198 -11 -238l-3 -5q-22 -16 -38 -8q-53 150 -59 399q-5 263 10.5 695t70.5 444.5t30 -147.5z" />
<glyph unicode="&#xff;" horiz-adv-x="720" d="M635 950q72 -18 72 -48q-40 -86 -229 -424l8 -74l-6 -108v-180l12 -75q-16 -42 -60 -42q-72 0 -72 419q0 50 -279 320q-57 73 -66 114q23 78 78 78q46 -11 114 -150q82 -118 205 -182q153 252 193 346zM600 1073q-28 -68 -85 -68v-4q-45 0 -111 99l-9 28q17 72 76 72 q125 -32 125 -112zM222 1104q0 -67 -138 -104q-116 47 -116 132q0 45 80 51q118 0 174 -79z" />
<glyph unicode="&#x152;" horiz-adv-x="3000" d="M1064 1486q122 0 353 -140q305 -163 305 -438v-67q2 -636 -678 -796q-150 -33 -300 -40l-107 7q-388 0 -594 333q-39 112 -40 187q0 381 365 664.5t696 289.5zM96 559q0 -222 241 -374q150 -80 340 -80h80q349 12 494.5 98t257.5 220.5t112 577.5q0 69 -144 211 q-30 14 -86 14l-54 -34h-6q-55 81 -167 81q-207 0 -207 -61q0 -60 -33 -60q-80 31 -80 94q0 55 126 120v7h-6q-307 -54 -507 -207q-137 -121 -221.5 -224t-132.5 -337zM1757 1400q16 0 78 -48h18q902 82 918 0q6 -78 -282 -66h-78q-612 -13 -612 -72q-14 0 -18 -90v-120 q0 -168 42 -168q251 76 523 105t263 -69q0 -42 -144 -24h-42q-290 0 -624 -120l-12 -36v-18q0 -378 90 -378q360 102 996 234q60 -31 60 -81.5t-382 -95.5t-698 -153q-84 -36 -192 -54q-54 11 -54 36q66 63 66 162v120q0 208 -36 216h-12q-83 21 -83 66q30 78 89 66h24v396 h-6l-83 5q-42 21 -42 48q0 60 95 67l108 66z" />
<glyph unicode="&#x153;" horiz-adv-x="1800" d="M526 980q148 0 246 -102q312 -176 282 -492q0 -147 -240 -300q-197 -90 -354 -90q-344 0 -420 216q-30 73 -30 144q30 428 414 600q67 24 102 24zM118 398v-54q0 -183 228 -252h60q311 0 414 102q132 55 132 162q30 297 -150 402l-36 6h-54l-6 -6q-116 60 -168 60h-60 q-178 0 -294 -156q-66 -213 -66 -264zM1580 944q84 -7 84 -60q-16 -22 -474 -120q-96 -24 -96 -96l-12 -108v-66l12 -12h48q35 0 516 114l42 6q30 -8 30 -18q0 -50 -510 -180q-112 -46 -120 -66v-18l30 -216q0 -72 -78 -72q-84 0 -84 222q-16 480 -54 480l-36 48 q77 102 114 102l72 -6q277 0 516 66zM1667 192l18 -6v-24q-2 -13 -180 -108q-147 -54 -264 -54q-147 0 -180 108q8 78 48 78q24 0 132 -54l114 -12h6q106 0 198 48q78 0 108 24z" />
<glyph unicode="&#x178;" horiz-adv-x="1074" d="M961 1382q60 -12 60 -60q-48 -112 -48 -168q-10 -82 -18 -1032q0 -352 -124 -692.5t-358.5 -656t-731.5 -315.5h-36q-257 14 -270 48v24l12 18q89 -24 246 -24q507 8 732.5 344t323.5 626t98 682q-7 41 -39 56l-255 286q-107 143 -540 600l-6 30v12q52 66 90 66 q39 0 65 -57t457 -525q18 -55 210 -228h12l6 24q-18 344 -18 576q0 366 126 366h6zM832 1673q-28 -68 -85 -68v-4q-45 0 -111 99l-9 28q17 72 76 72q125 -32 125 -112zM454 1704q0 -67 -138 -104q-116 47 -116 132q0 45 80 51q118 0 174 -79z" />
<glyph unicode="&#x2c6;" horiz-adv-x="780" d="M338 1428q55 0 245 -289q-8 -42 -24 -42h-18q-279 225 -190 210l-216 -253h-6l-24 36q-4 82 173 320z" />
<glyph unicode="&#x2dc;" horiz-adv-x="1024" d="M620 1413.5q71 -80.5 133.5 -80.5t156.5 81q14 16 34 63l9 3q19 -16 19 -31q0 -67 -62 -125.5t-160 -54.5t-168.5 81.5t-129 75t-135.5 -160.5l-40 8h-2l-4 6q36 119 83 172.5t121 48t145 -86z" />
<glyph unicode="&#x2000;" horiz-adv-x="999" />
<glyph unicode="&#x2001;" horiz-adv-x="1999" />
<glyph unicode="&#x2002;" horiz-adv-x="999" />
<glyph unicode="&#x2003;" horiz-adv-x="1999" />
<glyph unicode="&#x2004;" horiz-adv-x="666" />
<glyph unicode="&#x2005;" horiz-adv-x="499" />
<glyph unicode="&#x2006;" horiz-adv-x="333" />
<glyph unicode="&#x2007;" horiz-adv-x="333" />
<glyph unicode="&#x2008;" horiz-adv-x="249" />
<glyph unicode="&#x2009;" horiz-adv-x="399" />
<glyph unicode="&#x200a;" horiz-adv-x="111" />
<glyph unicode="&#x2010;" horiz-adv-x="935" d="M806 643q64 -38 12 -82l-118 8q-398 19 -591 -23q-60 32 -14 105q144 32 711 -8z" />
<glyph unicode="&#x2011;" horiz-adv-x="935" d="M806 643q64 -38 12 -82l-118 8q-398 19 -591 -23q-60 32 -14 105q144 32 711 -8z" />
<glyph unicode="&#x2012;" horiz-adv-x="935" d="M806 643q64 -38 12 -82l-118 8q-398 19 -591 -23q-60 32 -14 105q144 32 711 -8z" />
<glyph unicode="&#x2013;" horiz-adv-x="935" d="M814 730q64 -38 12 -82l-118 8q-398 19 -591 -23q-60 32 -14 105q144 32 711 -8z" />
<glyph unicode="&#x2014;" horiz-adv-x="1223" d="M1127 738q64 -38 12 -82l-118 8q-398 19 -904 -31q-60 32 -14 105q144 32 1024 0z" />
<glyph unicode="&#x2018;" horiz-adv-x="447" d="M19.5 1055q-7.5 119 104.5 262t127 149h12l6 -18q-28 -100 -66 -225v-6q130 -51 108 -162.5t-153 -115t-138.5 115.5z" />
<glyph unicode="&#x2019;" horiz-adv-x="447" d="M405.5 1338q7.5 -119 -104.5 -262t-127 -149h-12l-6 18q28 100 66 225v6q-130 51 -108 162.5t153 115t138.5 -115.5z" />
<glyph unicode="&#x201a;" horiz-adv-x="500" d="M432.5 157q7.5 -119 -104.5 -262t-127 -149h-12l-6 18q28 100 66 225v6q-130 51 -108 162.5t153 115t138.5 -115.5z" />
<glyph unicode="&#x201c;" horiz-adv-x="851" d="M12.5 1035q-7.5 119 104.5 262t127 149h12l6 -18q-28 -100 -66 -225v-6q130 -51 108 -162.5t-153 -115t-138.5 115.5zM358.5 938q-7.5 119 104.5 262t127 149h12l6 -18q-28 -100 -66 -225v-6q130 -51 108 -162.5t-153 -115t-138.5 115.5z" />
<glyph unicode="&#x201d;" horiz-adv-x="851" d="M819.5 1244q7.5 -119 -104.5 -262t-127 -149h-12l-6 18q28 100 66 225v6q-130 51 -108 162.5t153 115t138.5 -115.5zM473.5 1341q7.5 -119 -104.5 -262t-127 -149h-12l-6 18q28 100 66 225v6q-130 51 -108 162.5t153 115t138.5 -115.5z" />
<glyph unicode="&#x201e;" horiz-adv-x="969" d="M883.5 89q7.5 -119 -104.5 -262t-127 -149h-12l-6 18q28 100 66 225v6q-130 51 -108 162.5t153 115t138.5 -115.5zM537.5 186q7.5 -119 -104.5 -262t-127 -149h-12l-6 18q28 100 66 225v6q-130 51 -108 162.5t153 115t138.5 -115.5z" />
<glyph unicode="&#x2022;" horiz-adv-x="800" d="M431 492q-231 93 -231 224t160 143q236 0 272 -169.5t-201 -197.5z" />
<glyph unicode="&#x2026;" horiz-adv-x="1800" d="M305 33q-142 57 -142 137.5t98 87.5q145 0 167 -104t-123 -121zM942 0q-142 57 -142 137.5t98 87.5q145 0 167 -104t-123 -121zM1542 0q-142 57 -142 137.5t98 87.5q145 0 167 -104t-123 -121z" />
<glyph unicode="&#x202f;" horiz-adv-x="399" />
<glyph unicode="&#x2039;" horiz-adv-x="974" d="M852 869q-112 -205 -442 -347q-46 -36 -60 -66v-12q0 -36 108 -78q42 -46 213.5 -129t171.5 -145l-18 -18q-375 136 -607 274q-60 38 -60 72q44 83 252 228q105 76 384 221h58z" />
<glyph unicode="&#x203a;" horiz-adv-x="824" d="M143 884q279 -145 384 -221q208 -145 252 -228q0 -34 -60 -72q-232 -138 -607 -274l-18 18q0 62 171.5 145t213.5 129q108 42 108 78v12q-14 30 -60 66q-330 142 -442 347h58z" />
<glyph unicode="&#x205f;" horiz-adv-x="499" />
<glyph unicode="&#x20ac;" horiz-adv-x="1600" d="M1277 1378q190 0 117 -218q-68 87 -138 87h-80q-265 0 -692 -414q-152 -156 -152 -364v-15q-8 -171 167 -276q218 -58 349 -58h44q661 0 487 -66q-225 -36 -414 -36h-197q-407 0 -538 306q-22 77 -22 130q0 282 436 655q314 269 633 269zM1093 786l8 -19l-6 -60 q-1 -18 -19 -15q-232 38 -838 -13l-158 -4l-4 6l2 18q3 42 624 85q218 31 391 2zM1188 596l12 -18v-42q0 -36 -66 -36q-292 -36 -1002 -156l-84 -12l-6 6v18q0 42 882 198q109 29 264 42z" />
<glyph unicode="&#x2122;" horiz-adv-x="1497" />
<glyph unicode="&#x25fc;" horiz-adv-x="990" d="M0 990h990v-990h-990v990z" />
<glyph unicode="&#xfb03;" horiz-adv-x="1889" d="M774 1010q42 -5 42 -36q0 -47 -162 -60q-474 -108 -474 -168q-18 0 -24 -84v-48q0 -84 36 -84q186 24 600 102l18 -6v-12q0 -32 -486 -180l-150 -42l12 -336q-8 -60 -72 -60q-48 0 -48 42q-42 552 -42 702q0 156 42 156l42 -6h24q537 120 642 120z" />
<glyph unicode="&#xfb04;" horiz-adv-x="1193" d="M774 1010q42 -5 42 -36q0 -47 -162 -60q-474 -108 -474 -168q-18 0 -24 -84v-48q0 -84 36 -84q186 24 600 102l18 -6v-12q0 -32 -486 -180l-150 -42l12 -336q-8 -60 -72 -60q-48 0 -48 42q-42 552 -42 702q0 156 42 156l42 -6h24q537 120 642 120zM977 1001q60 0 60 -174 v-72l-19 -370q0 -217 15 -275t-45 -91h-36q-72 50 -72 150l25 562q0 93 -7 155t19 109z" />
</font>
</defs>
</svg>
